<svg width="1424" height="1008" viewBox="0 0 1424 1008" fill="none" xmlns="http://www.w3.org/2000/svg">
<g clip-path="url(#clip0_209_29)">
<rect width="1424" height="1008" rx="24" fill="#121212"/>
<path d="M-410.545 -7H-464V46.4211M-410.545 -7V46.4211M-410.545 -7H-357.091M-410.545 46.4211H-464M-410.545 46.4211V99.8421M-410.545 46.4211H-357.091M-464 46.4211V99.8421M-410.545 99.8421H-464M-410.545 99.8421V153.263M-410.545 99.8421H-357.091M-464 99.8421V153.263M-410.545 153.263H-464M-410.545 153.263V206.684M-410.545 153.263H-357.091M-464 153.263V206.684M-410.545 206.684H-464M-410.545 206.684V260.105M-410.545 206.684H-357.091M-464 206.684V260.105M-410.545 260.105H-464M-410.545 260.105V313.526M-410.545 260.105H-357.091M-464 260.105V313.526M-410.545 313.526H-464M-410.545 313.526V366.947M-410.545 313.526H-357.091M-464 313.526V366.947M-410.545 366.947H-464M-410.545 366.947V420.368M-410.545 366.947H-357.091M-464 366.947V420.368M-410.545 420.368H-464M-410.545 420.368V473.789M-410.545 420.368H-357.091M-464 420.368V473.789M-410.545 473.789H-464M-410.545 473.789V527.211M-410.545 473.789H-357.091M-464 473.789V527.211M-410.545 527.211H-464M-410.545 527.211V580.632M-410.545 527.211H-357.091M-464 527.211V580.632M-410.545 580.632H-464M-410.545 580.632V634.053M-410.545 580.632H-357.091M-464 580.632V634.053M-410.545 634.053H-464M-410.545 634.053V687.474M-410.545 634.053H-357.091M-464 634.053V687.474M-410.545 687.474H-464M-410.545 687.474V740.895M-410.545 687.474H-357.091M-464 687.474V740.895M-410.545 740.895H-464M-410.545 740.895V794.316M-410.545 740.895H-357.091M-464 740.895V794.316M-410.545 794.316H-464M-410.545 794.316V847.737M-410.545 794.316H-357.091M-464 794.316V847.737M-410.545 847.737H-464M-410.545 847.737V901.158M-410.545 847.737H-357.091M-464 847.737V901.158M-410.545 901.158H-464M-410.545 901.158V954.579M-410.545 901.158H-357.091M-464 901.158V954.579M-410.545 954.579H-464M-410.545 954.579V1008M-410.545 954.579H-357.091M-464 954.579V1008H-410.545M-410.545 1008H-357.091M-357.091 -7V46.4211M-357.091 -7H-303.636M-357.091 46.4211V99.8421M-357.091 46.4211H-303.636M-357.091 99.8421V153.263M-357.091 99.8421H-303.636M-357.091 153.263V206.684M-357.091 153.263H-303.636M-357.091 206.684V260.105M-357.091 206.684H-303.636M-357.091 260.105V313.526M-357.091 260.105H-303.636M-357.091 313.526V366.947M-357.091 313.526H-303.636M-357.091 366.947V420.368M-357.091 366.947H-303.636M-357.091 420.368V473.789M-357.091 420.368H-303.636M-357.091 473.789V527.211M-357.091 473.789H-303.636M-357.091 527.211V580.632M-357.091 527.211H-303.636M-357.091 580.632V634.053M-357.091 580.632H-303.636M-357.091 634.053V687.474M-357.091 634.053H-303.636M-357.091 687.474V740.895M-357.091 687.474H-303.636M-357.091 740.895V794.316M-357.091 740.895H-303.636M-357.091 794.316V847.737M-357.091 794.316H-303.636M-357.091 847.737V901.158M-357.091 847.737H-303.636M-357.091 901.158V954.579M-357.091 901.158H-303.636M-357.091 954.579V1008M-357.091 954.579H-303.636M-357.091 1008H-303.636M-303.636 -7V46.4211M-303.636 -7H-250.182M-303.636 46.4211V99.8421M-303.636 46.4211H-250.182M-303.636 99.8421V153.263M-303.636 99.8421H-250.182M-303.636 153.263V206.684M-303.636 153.263H-250.182M-303.636 206.684V260.105M-303.636 206.684H-250.182M-303.636 260.105V313.526M-303.636 260.105H-250.182M-303.636 313.526V366.947M-303.636 313.526H-250.182M-303.636 366.947V420.368M-303.636 366.947H-250.182M-303.636 420.368V473.789M-303.636 420.368H-250.182M-303.636 473.789V527.211M-303.636 473.789H-250.182M-303.636 527.211V580.632M-303.636 527.211H-250.182M-303.636 580.632V634.053M-303.636 580.632H-250.182M-303.636 634.053V687.474M-303.636 634.053H-250.182M-303.636 687.474V740.895M-303.636 687.474H-250.182M-303.636 740.895V794.316M-303.636 740.895H-250.182M-303.636 794.316V847.737M-303.636 794.316H-250.182M-303.636 847.737V901.158M-303.636 847.737H-250.182M-303.636 901.158V954.579M-303.636 901.158H-250.182M-303.636 954.579V1008M-303.636 954.579H-250.182M-303.636 1008H-250.182M-250.182 -7V46.4211M-250.182 -7H-196.727M-250.182 46.4211V99.8421M-250.182 46.4211H-196.727M-250.182 99.8421V153.263M-250.182 99.8421H-196.727M-250.182 153.263V206.684M-250.182 153.263H-196.727M-250.182 206.684V260.105M-250.182 206.684H-196.727M-250.182 260.105V313.526M-250.182 260.105H-196.727M-250.182 313.526V366.947M-250.182 313.526H-196.727M-250.182 366.947V420.368M-250.182 366.947H-196.727M-250.182 420.368V473.789M-250.182 420.368H-196.727M-250.182 473.789V527.211M-250.182 473.789H-196.727M-250.182 527.211V580.632M-250.182 527.211H-196.727M-250.182 580.632V634.053M-250.182 580.632H-196.727M-250.182 634.053V687.474M-250.182 634.053H-196.727M-250.182 687.474V740.895M-250.182 687.474H-196.727M-250.182 740.895V794.316M-250.182 740.895H-196.727M-250.182 794.316V847.737M-250.182 794.316H-196.727M-250.182 847.737V901.158M-250.182 847.737H-196.727M-250.182 901.158V954.579M-250.182 901.158H-196.727M-250.182 954.579V1008M-250.182 954.579H-196.727M-250.182 1008H-196.727M-196.727 -7V46.4211M-196.727 -7H-143.273M-196.727 46.4211V99.8421M-196.727 46.4211H-143.273M-196.727 99.8421V153.263M-196.727 99.8421H-143.273M-196.727 153.263V206.684M-196.727 153.263H-143.273M-196.727 206.684V260.105M-196.727 206.684H-143.273M-196.727 260.105V313.526M-196.727 260.105H-143.273M-196.727 313.526V366.947M-196.727 313.526H-143.273M-196.727 366.947V420.368M-196.727 366.947H-143.273M-196.727 420.368V473.789M-196.727 420.368H-143.273M-196.727 473.789V527.211M-196.727 473.789H-143.273M-196.727 527.211V580.632M-196.727 527.211H-143.273M-196.727 580.632V634.053M-196.727 580.632H-143.273M-196.727 634.053V687.474M-196.727 634.053H-143.273M-196.727 687.474V740.895M-196.727 687.474H-143.273M-196.727 740.895V794.316M-196.727 740.895H-143.273M-196.727 794.316V847.737M-196.727 794.316H-143.273M-196.727 847.737V901.158M-196.727 847.737H-143.273M-196.727 901.158V954.579M-196.727 901.158H-143.273M-196.727 954.579V1008M-196.727 954.579H-143.273M-196.727 1008H-143.273M-143.273 -7V46.4211M-143.273 -7H-89.8182M-143.273 46.4211V99.8421M-143.273 46.4211H-89.8182M-143.273 99.8421V153.263M-143.273 99.8421H-89.8182M-143.273 153.263V206.684M-143.273 153.263H-89.8182M-143.273 206.684V260.105M-143.273 206.684H-89.8182M-143.273 260.105V313.526M-143.273 260.105H-89.8182M-143.273 313.526V366.947M-143.273 313.526H-89.8182M-143.273 366.947V420.368M-143.273 366.947H-89.8182M-143.273 420.368V473.789M-143.273 420.368H-89.8182M-143.273 473.789V527.211M-143.273 473.789H-89.8182M-143.273 527.211V580.632M-143.273 527.211H-89.8182M-143.273 580.632V634.053M-143.273 580.632H-89.8182M-143.273 634.053V687.474M-143.273 634.053H-89.8182M-143.273 687.474V740.895M-143.273 687.474H-89.8182M-143.273 740.895V794.316M-143.273 740.895H-89.8182M-143.273 794.316V847.737M-143.273 794.316H-89.8182M-143.273 847.737V901.158M-143.273 847.737H-89.8182M-143.273 901.158V954.579M-143.273 901.158H-89.8182M-143.273 954.579V1008M-143.273 954.579H-89.8182M-143.273 1008H-89.8182M-89.8182 -7V46.4211M-89.8182 -7H-36.3636M-89.8182 46.4211V99.8421M-89.8182 46.4211H-36.3636M-89.8182 99.8421V153.263M-89.8182 99.8421H-36.3636M-89.8182 153.263V206.684M-89.8182 153.263H-36.3636M-89.8182 206.684V260.105M-89.8182 206.684H-36.3636M-89.8182 260.105V313.526M-89.8182 260.105H-36.3636M-89.8182 313.526V366.947M-89.8182 313.526H-36.3636M-89.8182 366.947V420.368M-89.8182 366.947H-36.3636M-89.8182 420.368V473.789M-89.8182 420.368H-36.3636M-89.8182 473.789V527.211M-89.8182 473.789H-36.3636M-89.8182 527.211V580.632M-89.8182 527.211H-36.3636M-89.8182 580.632V634.053M-89.8182 580.632H-36.3636M-89.8182 634.053V687.474M-89.8182 634.053H-36.3636M-89.8182 687.474V740.895M-89.8182 687.474H-36.3636M-89.8182 740.895V794.316M-89.8182 740.895H-36.3636M-89.8182 794.316V847.737M-89.8182 794.316H-36.3636M-89.8182 847.737V901.158M-89.8182 847.737H-36.3636M-89.8182 901.158V954.579M-89.8182 901.158H-36.3636M-89.8182 954.579V1008M-89.8182 954.579H-36.3636M-89.8182 1008H-36.3636M-36.3636 -7V46.4211M-36.3636 -7H17.0909M-36.3636 46.4211V99.8421M-36.3636 46.4211H17.0909M-36.3636 99.8421V153.263M-36.3636 99.8421H17.0909M-36.3636 153.263V206.684M-36.3636 153.263H17.0909M-36.3636 206.684V260.105M-36.3636 206.684H17.0909M-36.3636 260.105V313.526M-36.3636 260.105H17.0909M-36.3636 313.526V366.947M-36.3636 313.526H17.0909M-36.3636 366.947V420.368M-36.3636 366.947H17.0909M-36.3636 420.368V473.789M-36.3636 420.368H17.0909M-36.3636 473.789V527.211M-36.3636 473.789H17.0909M-36.3636 527.211V580.632M-36.3636 527.211H17.0909M-36.3636 580.632V634.053M-36.3636 580.632H17.0909M-36.3636 634.053V687.474M-36.3636 634.053H17.0909M-36.3636 687.474V740.895M-36.3636 687.474H17.0909M-36.3636 740.895V794.316M-36.3636 740.895H17.0909M-36.3636 794.316V847.737M-36.3636 794.316H17.0909M-36.3636 847.737V901.158M-36.3636 847.737H17.0909M-36.3636 901.158V954.579M-36.3636 901.158H17.0909M-36.3636 954.579V1008M-36.3636 954.579H17.0909M-36.3636 1008H17.0909M17.0909 -7V46.4211M17.0909 -7H70.5455M17.0909 46.4211V99.8421M17.0909 46.4211H70.5455M17.0909 99.8421V153.263M17.0909 99.8421H70.5455M17.0909 153.263V206.684M17.0909 153.263H70.5455M17.0909 206.684V260.105M17.0909 206.684H70.5455M17.0909 260.105V313.526M17.0909 260.105H70.5455M17.0909 313.526V366.947M17.0909 313.526H70.5455M17.0909 366.947V420.368M17.0909 366.947H70.5455M17.0909 420.368V473.789M17.0909 420.368H70.5455M17.0909 473.789V527.211M17.0909 473.789H70.5455M17.0909 527.211V580.632M17.0909 527.211H70.5455M17.0909 580.632V634.053M17.0909 580.632H70.5455M17.0909 634.053V687.474M17.0909 634.053H70.5455M17.0909 687.474V740.895M17.0909 687.474H70.5455M17.0909 740.895V794.316M17.0909 740.895H70.5455M17.0909 794.316V847.737M17.0909 794.316H70.5455M17.0909 847.737V901.158M17.0909 847.737H70.5455M17.0909 901.158V954.579M17.0909 901.158H70.5455M17.0909 954.579V1008M17.0909 954.579H70.5455M17.0909 1008H70.5455M70.5455 -7V46.4211M70.5455 -7H124M70.5455 46.4211V99.8421M70.5455 46.4211H124M70.5455 99.8421V153.263M70.5455 99.8421H124M70.5455 153.263V206.684M70.5455 153.263H124M70.5455 206.684V260.105M70.5455 206.684H124M70.5455 260.105V313.526M70.5455 260.105H124M70.5455 313.526V366.947M70.5455 313.526H124M70.5455 366.947V420.368M70.5455 366.947H124M70.5455 420.368V473.789M70.5455 420.368H124M70.5455 473.789V527.211M70.5455 473.789H124M70.5455 527.211V580.632M70.5455 527.211H124M70.5455 580.632V634.053M70.5455 580.632H124M70.5455 634.053V687.474M70.5455 634.053H124M70.5455 687.474V740.895M70.5455 687.474H124M70.5455 740.895V794.316M70.5455 740.895H124M70.5455 794.316V847.737M70.5455 794.316H124M70.5455 847.737V901.158M70.5455 847.737H124M70.5455 901.158V954.579M70.5455 901.158H124M70.5455 954.579V1008M70.5455 954.579H124M70.5455 1008H124M124 -7V46.4211M124 -7H177.455M124 46.4211V99.8421M124 46.4211H177.455M124 99.8421V153.263M124 99.8421H177.455M124 153.263V206.684M124 153.263H177.455M124 206.684V260.105M124 206.684H177.455M124 260.105V313.526M124 260.105H177.455M124 313.526V366.947M124 313.526H177.455M124 366.947V420.368M124 366.947H177.455M124 420.368V473.789M124 420.368H177.455M124 473.789V527.211M124 473.789H177.455M124 527.211V580.632M124 527.211H177.455M124 580.632V634.053M124 580.632H177.455M124 634.053V687.474M124 634.053H177.455M124 687.474V740.895M124 687.474H177.455M124 740.895V794.316M124 740.895H177.455M124 794.316V847.737M124 794.316H177.455M124 847.737V901.158M124 847.737H177.455M124 901.158V954.579M124 901.158H177.455M124 954.579V1008M124 954.579H177.455M124 1008H177.455M177.455 -7V46.4211M177.455 -7H230.909M177.455 46.4211V99.8421M177.455 46.4211H230.909M177.455 99.8421V153.263M177.455 99.8421H230.909M177.455 153.263V206.684M177.455 153.263H230.909M177.455 206.684V260.105M177.455 206.684H230.909M177.455 260.105V313.526M177.455 260.105H230.909M177.455 313.526V366.947M177.455 313.526H230.909M177.455 366.947V420.368M177.455 366.947H230.909M177.455 420.368V473.789M177.455 420.368H230.909M177.455 473.789V527.211M177.455 473.789H230.909M177.455 527.211V580.632M177.455 527.211H230.909M177.455 580.632V634.053M177.455 580.632H230.909M177.455 634.053V687.474M177.455 634.053H230.909M177.455 687.474V740.895M177.455 687.474H230.909M177.455 740.895V794.316M177.455 740.895H230.909M177.455 794.316V847.737M177.455 794.316H230.909M177.455 847.737V901.158M177.455 847.737H230.909M177.455 901.158V954.579M177.455 901.158H230.909M177.455 954.579V1008M177.455 954.579H230.909M177.455 1008H230.909M230.909 -7V46.4211M230.909 -7H284.364M230.909 46.4211V99.8421M230.909 46.4211H284.364M230.909 99.8421V153.263M230.909 99.8421H284.364M230.909 153.263V206.684M230.909 153.263H284.364M230.909 206.684V260.105M230.909 206.684H284.364M230.909 260.105V313.526M230.909 260.105H284.364M230.909 313.526V366.947M230.909 313.526H284.364M230.909 366.947V420.368M230.909 366.947H284.364M230.909 420.368V473.789M230.909 420.368H284.364M230.909 473.789V527.211M230.909 473.789H284.364M230.909 527.211V580.632M230.909 527.211H284.364M230.909 580.632V634.053M230.909 580.632H284.364M230.909 634.053V687.474M230.909 634.053H284.364M230.909 687.474V740.895M230.909 687.474H284.364M230.909 740.895V794.316M230.909 740.895H284.364M230.909 794.316V847.737M230.909 794.316H284.364M230.909 847.737V901.158M230.909 847.737H284.364M230.909 901.158V954.579M230.909 901.158H284.364M230.909 954.579V1008M230.909 954.579H284.364M230.909 1008H284.364M284.364 -7V46.4211M284.364 -7H337.818M284.364 46.4211V99.8421M284.364 46.4211H337.818M284.364 99.8421V153.263M284.364 99.8421H337.818M284.364 153.263V206.684M284.364 153.263H337.818M284.364 206.684V260.105M284.364 206.684H337.818M284.364 260.105V313.526M284.364 260.105H337.818M284.364 313.526V366.947M284.364 313.526H337.818M284.364 366.947V420.368M284.364 366.947H337.818M284.364 420.368V473.789M284.364 420.368H337.818M284.364 473.789V527.211M284.364 473.789H337.818M284.364 527.211V580.632M284.364 527.211H337.818M284.364 580.632V634.053M284.364 580.632H337.818M284.364 634.053V687.474M284.364 634.053H337.818M284.364 687.474V740.895M284.364 687.474H337.818M284.364 740.895V794.316M284.364 740.895H337.818M284.364 794.316V847.737M284.364 794.316H337.818M284.364 847.737V901.158M284.364 847.737H337.818M284.364 901.158V954.579M284.364 901.158H337.818M284.364 954.579V1008M284.364 954.579H337.818M284.364 1008H337.818M337.818 -7V46.4211M337.818 -7H391.273M337.818 46.4211V99.8421M337.818 46.4211H391.273M337.818 99.8421V153.263M337.818 99.8421H391.273M337.818 153.263V206.684M337.818 153.263H391.273M337.818 206.684V260.105M337.818 206.684H391.273M337.818 260.105V313.526M337.818 260.105H391.273M337.818 313.526V366.947M337.818 313.526H391.273M337.818 366.947V420.368M337.818 366.947H391.273M337.818 420.368V473.789M337.818 420.368H391.273M337.818 473.789V527.211M337.818 473.789H391.273M337.818 527.211V580.632M337.818 527.211H391.273M337.818 580.632V634.053M337.818 580.632H391.273M337.818 634.053V687.474M337.818 634.053H391.273M337.818 687.474V740.895M337.818 687.474H391.273M337.818 740.895V794.316M337.818 740.895H391.273M337.818 794.316V847.737M337.818 794.316H391.273M337.818 847.737V901.158M337.818 847.737H391.273M337.818 901.158V954.579M337.818 901.158H391.273M337.818 954.579V1008M337.818 954.579H391.273M337.818 1008H391.273M391.273 -7V46.4211M391.273 -7H444.727M391.273 46.4211V99.8421M391.273 46.4211H444.727M391.273 99.8421V153.263M391.273 99.8421H444.727M391.273 153.263V206.684M391.273 153.263H444.727M391.273 206.684V260.105M391.273 206.684H444.727M391.273 260.105V313.526M391.273 260.105H444.727M391.273 313.526V366.947M391.273 313.526H444.727M391.273 366.947V420.368M391.273 366.947H444.727M391.273 420.368V473.789M391.273 420.368H444.727M391.273 473.789V527.211M391.273 473.789H444.727M391.273 527.211V580.632M391.273 527.211H444.727M391.273 580.632V634.053M391.273 580.632H444.727M391.273 634.053V687.474M391.273 634.053H444.727M391.273 687.474V740.895M391.273 687.474H444.727M391.273 740.895V794.316M391.273 740.895H444.727M391.273 794.316V847.737M391.273 794.316H444.727M391.273 847.737V901.158M391.273 847.737H444.727M391.273 901.158V954.579M391.273 901.158H444.727M391.273 954.579V1008M391.273 954.579H444.727M391.273 1008H444.727M444.727 -7V46.4211M444.727 -7H498.182M444.727 46.4211V99.8421M444.727 46.4211H498.182M444.727 99.8421V153.263M444.727 99.8421H498.182M444.727 153.263V206.684M444.727 153.263H498.182M444.727 206.684V260.105M444.727 206.684H498.182M444.727 260.105V313.526M444.727 260.105H498.182M444.727 313.526V366.947M444.727 313.526H498.182M444.727 366.947V420.368M444.727 366.947H498.182M444.727 420.368V473.789M444.727 420.368H498.182M444.727 473.789V527.211M444.727 473.789H498.182M444.727 527.211V580.632M444.727 527.211H498.182M444.727 580.632V634.053M444.727 580.632H498.182M444.727 634.053V687.474M444.727 634.053H498.182M444.727 687.474V740.895M444.727 687.474H498.182M444.727 740.895V794.316M444.727 740.895H498.182M444.727 794.316V847.737M444.727 794.316H498.182M444.727 847.737V901.158M444.727 847.737H498.182M444.727 901.158V954.579M444.727 901.158H498.182M444.727 954.579V1008M444.727 954.579H498.182M444.727 1008H498.182M498.182 -7V46.4211M498.182 -7H551.636M498.182 46.4211V99.8421M498.182 46.4211H551.636M498.182 99.8421V153.263M498.182 99.8421H551.636M498.182 153.263V206.684M498.182 153.263H551.636M498.182 206.684V260.105M498.182 206.684H551.636M498.182 260.105V313.526M498.182 260.105H551.636M498.182 313.526V366.947M498.182 313.526H551.636M498.182 366.947V420.368M498.182 366.947H551.636M498.182 420.368V473.789M498.182 420.368H551.636M498.182 473.789V527.211M498.182 473.789H551.636M498.182 527.211V580.632M498.182 527.211H551.636M498.182 580.632V634.053M498.182 580.632H551.636M498.182 634.053V687.474M498.182 634.053H551.636M498.182 687.474V740.895M498.182 687.474H551.636M498.182 740.895V794.316M498.182 740.895H551.636M498.182 794.316V847.737M498.182 794.316H551.636M498.182 847.737V901.158M498.182 847.737H551.636M498.182 901.158V954.579M498.182 901.158H551.636M498.182 954.579V1008M498.182 954.579H551.636M498.182 1008H551.636M551.636 -7V46.4211M551.636 -7H605.091M551.636 46.4211V99.8421M551.636 46.4211H605.091M551.636 99.8421V153.263M551.636 99.8421H605.091M551.636 153.263V206.684M551.636 153.263H605.091M551.636 206.684V260.105M551.636 206.684H605.091M551.636 260.105V313.526M551.636 260.105H605.091M551.636 313.526V366.947M551.636 313.526H605.091M551.636 366.947V420.368M551.636 366.947H605.091M551.636 420.368V473.789M551.636 420.368H605.091M551.636 473.789V527.211M551.636 473.789H605.091M551.636 527.211V580.632M551.636 527.211H605.091M551.636 580.632V634.053M551.636 580.632H605.091M551.636 634.053V687.474M551.636 634.053H605.091M551.636 687.474V740.895M551.636 687.474H605.091M551.636 740.895V794.316M551.636 740.895H605.091M551.636 794.316V847.737M551.636 794.316H605.091M551.636 847.737V901.158M551.636 847.737H605.091M551.636 901.158V954.579M551.636 901.158H605.091M551.636 954.579V1008M551.636 954.579H605.091M551.636 1008H605.091M605.091 -7V46.4211M605.091 -7H658.545M605.091 46.4211V99.8421M605.091 46.4211H658.545M605.091 99.8421V153.263M605.091 99.8421H658.545M605.091 153.263V206.684M605.091 153.263H658.545M605.091 206.684V260.105M605.091 206.684H658.545M605.091 260.105V313.526M605.091 260.105H658.545M605.091 313.526V366.947M605.091 313.526H658.545M605.091 366.947V420.368M605.091 366.947H658.545M605.091 420.368V473.789M605.091 420.368H658.545M605.091 473.789V527.211M605.091 473.789H658.545M605.091 527.211V580.632M605.091 527.211H658.545M605.091 580.632V634.053M605.091 580.632H658.545M605.091 634.053V687.474M605.091 634.053H658.545M605.091 687.474V740.895M605.091 687.474H658.545M605.091 740.895V794.316M605.091 740.895H658.545M605.091 794.316V847.737M605.091 794.316H658.545M605.091 847.737V901.158M605.091 847.737H658.545M605.091 901.158V954.579M605.091 901.158H658.545M605.091 954.579V1008M605.091 954.579H658.545M605.091 1008H658.545M658.545 -7V46.4211M658.545 -7H712M658.545 46.4211V99.8421M658.545 46.4211H712M658.545 99.8421V153.263M658.545 99.8421H712M658.545 153.263V206.684M658.545 153.263H712M658.545 206.684V260.105M658.545 206.684H712M658.545 260.105V313.526M658.545 260.105H712M658.545 313.526V366.947M658.545 313.526H712M658.545 366.947V420.368M658.545 366.947H712M658.545 420.368V473.789M658.545 420.368H712M658.545 473.789V527.211M658.545 473.789H712M658.545 527.211V580.632M658.545 527.211H712M658.545 580.632V634.053M658.545 580.632H712M658.545 634.053V687.474M658.545 634.053H712M658.545 687.474V740.895M658.545 687.474H712M658.545 740.895V794.316M658.545 740.895H712M658.545 794.316V847.737M658.545 794.316H712M658.545 847.737V901.158M658.545 847.737H712M658.545 901.158V954.579M658.545 901.158H712M658.545 954.579V1008M658.545 954.579H712M658.545 1008H712M712 -7V46.4211M712 -7H765.455M712 46.4211V99.8421M712 46.4211H765.455M712 99.8421V153.263M712 99.8421H765.455M712 153.263V206.684M712 153.263H765.455M712 206.684V260.105M712 206.684H765.455M712 260.105V313.526M712 260.105H765.455M712 313.526V366.947M712 313.526H765.455M712 366.947V420.368M712 366.947H765.455M712 420.368V473.789M712 420.368H765.455M712 473.789V527.211M712 473.789H765.455M712 527.211V580.632M712 527.211H765.455M712 580.632V634.053M712 580.632H765.455M712 634.053V687.474M712 634.053H765.455M712 687.474V740.895M712 687.474H765.455M712 740.895V794.316M712 740.895H765.455M712 794.316V847.737M712 794.316H765.455M712 847.737V901.158M712 847.737H765.455M712 901.158V954.579M712 901.158H765.455M712 954.579V1008M712 954.579H765.455M712 1008H765.455M765.455 -7V46.4211M765.455 -7H818.909M765.455 46.4211V99.8421M765.455 46.4211H818.909M765.455 99.8421V153.263M765.455 99.8421H818.909M765.455 153.263V206.684M765.455 153.263H818.909M765.455 206.684V260.105M765.455 206.684H818.909M765.455 260.105V313.526M765.455 260.105H818.909M765.455 313.526V366.947M765.455 313.526H818.909M765.455 366.947V420.368M765.455 366.947H818.909M765.455 420.368V473.789M765.455 420.368H818.909M765.455 473.789V527.211M765.455 473.789H818.909M765.455 527.211V580.632M765.455 527.211H818.909M765.455 580.632V634.053M765.455 580.632H818.909M765.455 634.053V687.474M765.455 634.053H818.909M765.455 687.474V740.895M765.455 687.474H818.909M765.455 740.895V794.316M765.455 740.895H818.909M765.455 794.316V847.737M765.455 794.316H818.909M765.455 847.737V901.158M765.455 847.737H818.909M765.455 901.158V954.579M765.455 901.158H818.909M765.455 954.579V1008M765.455 954.579H818.909M765.455 1008H818.909M818.909 -7V46.4211M818.909 -7H872.364M818.909 46.4211V99.8421M818.909 46.4211H872.364M818.909 99.8421V153.263M818.909 99.8421H872.364M818.909 153.263V206.684M818.909 153.263H872.364M818.909 206.684V260.105M818.909 206.684H872.364M818.909 260.105V313.526M818.909 260.105H872.364M818.909 313.526V366.947M818.909 313.526H872.364M818.909 366.947V420.368M818.909 366.947H872.364M818.909 420.368V473.789M818.909 420.368H872.364M818.909 473.789V527.211M818.909 473.789H872.364M818.909 527.211V580.632M818.909 527.211H872.364M818.909 580.632V634.053M818.909 580.632H872.364M818.909 634.053V687.474M818.909 634.053H872.364M818.909 687.474V740.895M818.909 687.474H872.364M818.909 740.895V794.316M818.909 740.895H872.364M818.909 794.316V847.737M818.909 794.316H872.364M818.909 847.737V901.158M818.909 847.737H872.364M818.909 901.158V954.579M818.909 901.158H872.364M818.909 954.579V1008M818.909 954.579H872.364M818.909 1008H872.364M872.364 -7V46.4211M872.364 -7H925.818M872.364 46.4211V99.8421M872.364 46.4211H925.818M872.364 99.8421V153.263M872.364 99.8421H925.818M872.364 153.263V206.684M872.364 153.263H925.818M872.364 206.684V260.105M872.364 206.684H925.818M872.364 260.105V313.526M872.364 260.105H925.818M872.364 313.526V366.947M872.364 313.526H925.818M872.364 366.947V420.368M872.364 366.947H925.818M872.364 420.368V473.789M872.364 420.368H925.818M872.364 473.789V527.211M872.364 473.789H925.818M872.364 527.211V580.632M872.364 527.211H925.818M872.364 580.632V634.053M872.364 580.632H925.818M872.364 634.053V687.474M872.364 634.053H925.818M872.364 687.474V740.895M872.364 687.474H925.818M872.364 740.895V794.316M872.364 740.895H925.818M872.364 794.316V847.737M872.364 794.316H925.818M872.364 847.737V901.158M872.364 847.737H925.818M872.364 901.158V954.579M872.364 901.158H925.818M872.364 954.579V1008M872.364 954.579H925.818M872.364 1008H925.818M925.818 -7V46.4211M925.818 -7H979.273M925.818 46.4211V99.8421M925.818 46.4211H979.273M925.818 99.8421V153.263M925.818 99.8421H979.273M925.818 153.263V206.684M925.818 153.263H979.273M925.818 206.684V260.105M925.818 206.684H979.273M925.818 260.105V313.526M925.818 260.105H979.273M925.818 313.526V366.947M925.818 313.526H979.273M925.818 366.947V420.368M925.818 366.947H979.273M925.818 420.368V473.789M925.818 420.368H979.273M925.818 473.789V527.211M925.818 473.789H979.273M925.818 527.211V580.632M925.818 527.211H979.273M925.818 580.632V634.053M925.818 580.632H979.273M925.818 634.053V687.474M925.818 634.053H979.273M925.818 687.474V740.895M925.818 687.474H979.273M925.818 740.895V794.316M925.818 740.895H979.273M925.818 794.316V847.737M925.818 794.316H979.273M925.818 847.737V901.158M925.818 847.737H979.273M925.818 901.158V954.579M925.818 901.158H979.273M925.818 954.579V1008M925.818 954.579H979.273M925.818 1008H979.273M979.273 -7V46.4211M979.273 -7H1032.73M979.273 46.4211V99.8421M979.273 46.4211H1032.73M979.273 99.8421V153.263M979.273 99.8421H1032.73M979.273 153.263V206.684M979.273 153.263H1032.73M979.273 206.684V260.105M979.273 206.684H1032.73M979.273 260.105V313.526M979.273 260.105H1032.73M979.273 313.526V366.947M979.273 313.526H1032.73M979.273 366.947V420.368M979.273 366.947H1032.73M979.273 420.368V473.789M979.273 420.368H1032.73M979.273 473.789V527.211M979.273 473.789H1032.73M979.273 527.211V580.632M979.273 527.211H1032.73M979.273 580.632V634.053M979.273 580.632H1032.73M979.273 634.053V687.474M979.273 634.053H1032.73M979.273 687.474V740.895M979.273 687.474H1032.73M979.273 740.895V794.316M979.273 740.895H1032.73M979.273 794.316V847.737M979.273 794.316H1032.73M979.273 847.737V901.158M979.273 847.737H1032.73M979.273 901.158V954.579M979.273 901.158H1032.73M979.273 954.579V1008M979.273 954.579H1032.73M979.273 1008H1032.73M1032.73 -7V46.4211M1032.73 -7H1086.18M1032.73 46.4211V99.8421M1032.73 46.4211H1086.18M1032.73 99.8421V153.263M1032.73 99.8421H1086.18M1032.73 153.263V206.684M1032.73 153.263H1086.18M1032.73 206.684V260.105M1032.73 206.684H1086.18M1032.73 260.105V313.526M1032.73 260.105H1086.18M1032.73 313.526V366.947M1032.73 313.526H1086.18M1032.73 366.947V420.368M1032.73 366.947H1086.18M1032.73 420.368V473.789M1032.73 420.368H1086.18M1032.73 473.789V527.211M1032.73 473.789H1086.18M1032.73 527.211V580.632M1032.73 527.211H1086.18M1032.73 580.632V634.053M1032.73 580.632H1086.18M1032.73 634.053V687.474M1032.73 634.053H1086.18M1032.73 687.474V740.895M1032.73 687.474H1086.18M1032.73 740.895V794.316M1032.73 740.895H1086.18M1032.73 794.316V847.737M1032.73 794.316H1086.18M1032.73 847.737V901.158M1032.73 847.737H1086.18M1032.73 901.158V954.579M1032.73 901.158H1086.18M1032.73 954.579V1008M1032.73 954.579H1086.18M1032.73 1008H1086.18M1086.18 -7V46.4211M1086.18 -7H1139.64M1086.18 46.4211V99.8421M1086.18 46.4211H1139.64M1086.18 99.8421V153.263M1086.18 99.8421H1139.64M1086.18 153.263V206.684M1086.18 153.263H1139.64M1086.18 206.684V260.105M1086.18 206.684H1139.64M1086.18 260.105V313.526M1086.18 260.105H1139.64M1086.18 313.526V366.947M1086.18 313.526H1139.64M1086.18 366.947V420.368M1086.18 366.947H1139.64M1086.18 420.368V473.789M1086.18 420.368H1139.64M1086.18 473.789V527.211M1086.18 473.789H1139.64M1086.18 527.211V580.632M1086.18 527.211H1139.64M1086.18 580.632V634.053M1086.18 580.632H1139.64M1086.18 634.053V687.474M1086.18 634.053H1139.64M1086.18 687.474V740.895M1086.18 687.474H1139.64M1086.18 740.895V794.316M1086.18 740.895H1139.64M1086.18 794.316V847.737M1086.18 794.316H1139.64M1086.18 847.737V901.158M1086.18 847.737H1139.64M1086.18 901.158V954.579M1086.18 901.158H1139.64M1086.18 954.579V1008M1086.18 954.579H1139.64M1086.18 1008H1139.64M1139.64 -7V46.4211M1139.64 -7H1193.09M1139.64 46.4211V99.8421M1139.64 46.4211H1193.09M1139.64 99.8421V153.263M1139.64 99.8421H1193.09M1139.64 153.263V206.684M1139.64 153.263H1193.09M1139.64 206.684V260.105M1139.64 206.684H1193.09M1139.64 260.105V313.526M1139.64 260.105H1193.09M1139.64 313.526V366.947M1139.64 313.526H1193.09M1139.64 366.947V420.368M1139.64 366.947H1193.09M1139.64 420.368V473.789M1139.64 420.368H1193.09M1139.64 473.789V527.211M1139.64 473.789H1193.09M1139.64 527.211V580.632M1139.64 527.211H1193.09M1139.64 580.632V634.053M1139.64 580.632H1193.09M1139.64 634.053V687.474M1139.64 634.053H1193.09M1139.64 687.474V740.895M1139.64 687.474H1193.09M1139.64 740.895V794.316M1139.64 740.895H1193.09M1139.64 794.316V847.737M1139.64 794.316H1193.09M1139.64 847.737V901.158M1139.64 847.737H1193.09M1139.64 901.158V954.579M1139.64 901.158H1193.09M1139.64 954.579V1008M1139.64 954.579H1193.09M1139.64 1008H1193.09M1193.09 -7V46.4211M1193.09 -7H1246.55M1193.09 46.4211V99.8421M1193.09 46.4211H1246.55M1193.09 99.8421V153.263M1193.09 99.8421H1246.55M1193.09 153.263V206.684M1193.09 153.263H1246.55M1193.09 206.684V260.105M1193.09 206.684H1246.55M1193.09 260.105V313.526M1193.09 260.105H1246.55M1193.09 313.526V366.947M1193.09 313.526H1246.55M1193.09 366.947V420.368M1193.09 366.947H1246.55M1193.09 420.368V473.789M1193.09 420.368H1246.55M1193.09 473.789V527.211M1193.09 473.789H1246.55M1193.09 527.211V580.632M1193.09 527.211H1246.55M1193.09 580.632V634.053M1193.09 580.632H1246.55M1193.09 634.053V687.474M1193.09 634.053H1246.55M1193.09 687.474V740.895M1193.09 687.474H1246.55M1193.09 740.895V794.316M1193.09 740.895H1246.55M1193.09 794.316V847.737M1193.09 794.316H1246.55M1193.09 847.737V901.158M1193.09 847.737H1246.55M1193.09 901.158V954.579M1193.09 901.158H1246.55M1193.09 954.579V1008M1193.09 954.579H1246.55M1193.09 1008H1246.55M1246.55 -7V46.4211M1246.55 -7H1300M1246.55 46.4211V99.8421M1246.55 46.4211H1300M1246.55 99.8421V153.263M1246.55 99.8421H1300M1246.55 153.263V206.684M1246.55 153.263H1300M1246.55 206.684V260.105M1246.55 206.684H1300M1246.55 260.105V313.526M1246.55 260.105H1300M1246.55 313.526V366.947M1246.55 313.526H1300M1246.55 366.947V420.368M1246.55 366.947H1300M1246.55 420.368V473.789M1246.55 420.368H1300M1246.55 473.789V527.211M1246.55 473.789H1300M1246.55 527.211V580.632M1246.55 527.211H1300M1246.55 580.632V634.053M1246.55 580.632H1300M1246.55 634.053V687.474M1246.55 634.053H1300M1246.55 687.474V740.895M1246.55 687.474H1300M1246.55 740.895V794.316M1246.55 740.895H1300M1246.55 794.316V847.737M1246.55 794.316H1300M1246.55 847.737V901.158M1246.55 847.737H1300M1246.55 901.158V954.579M1246.55 901.158H1300M1246.55 954.579V1008M1246.55 954.579H1300M1246.55 1008H1300M1300 -7V46.4211M1300 -7H1353.45M1300 46.4211V99.8421M1300 46.4211H1353.45M1300 99.8421V153.263M1300 99.8421H1353.45M1300 153.263V206.684M1300 153.263H1353.45M1300 206.684V260.105M1300 206.684H1353.45M1300 260.105V313.526M1300 260.105H1353.45M1300 313.526V366.947M1300 313.526H1353.45M1300 366.947V420.368M1300 366.947H1353.45M1300 420.368V473.789M1300 420.368H1353.45M1300 473.789V527.211M1300 473.789H1353.45M1300 527.211V580.632M1300 527.211H1353.45M1300 580.632V634.053M1300 580.632H1353.45M1300 634.053V687.474M1300 634.053H1353.45M1300 687.474V740.895M1300 687.474H1353.45M1300 740.895V794.316M1300 740.895H1353.45M1300 794.316V847.737M1300 794.316H1353.45M1300 847.737V901.158M1300 847.737H1353.45M1300 901.158V954.579M1300 901.158H1353.45M1300 954.579V1008M1300 954.579H1353.45M1300 1008H1353.45M1353.45 -7V46.4211M1353.45 -7H1406.91M1353.45 46.4211V99.8421M1353.45 46.4211H1406.91M1353.45 99.8421V153.263M1353.45 99.8421H1406.91M1353.45 153.263V206.684M1353.45 153.263H1406.91M1353.45 206.684V260.105M1353.45 206.684H1406.91M1353.45 260.105V313.526M1353.45 260.105H1406.91M1353.45 313.526V366.947M1353.45 313.526H1406.91M1353.45 366.947V420.368M1353.45 366.947H1406.91M1353.45 420.368V473.789M1353.45 420.368H1406.91M1353.45 473.789V527.211M1353.45 473.789H1406.91M1353.45 527.211V580.632M1353.45 527.211H1406.91M1353.45 580.632V634.053M1353.45 580.632H1406.91M1353.45 634.053V687.474M1353.45 634.053H1406.91M1353.45 687.474V740.895M1353.45 687.474H1406.91M1353.45 740.895V794.316M1353.45 740.895H1406.91M1353.45 794.316V847.737M1353.45 794.316H1406.91M1353.45 847.737V901.158M1353.45 847.737H1406.91M1353.45 901.158V954.579M1353.45 901.158H1406.91M1353.45 954.579V1008M1353.45 954.579H1406.91M1353.45 1008H1406.91M1406.91 -7V46.4211M1406.91 -7H1460.36M1406.91 46.4211V99.8421M1406.91 46.4211H1460.36M1406.91 99.8421V153.263M1406.91 99.8421H1460.36M1406.91 153.263V206.684M1406.91 153.263H1460.36M1406.91 206.684V260.105M1406.91 206.684H1460.36M1406.91 260.105V313.526M1406.91 260.105H1460.36M1406.91 313.526V366.947M1406.91 313.526H1460.36M1406.91 366.947V420.368M1406.91 366.947H1460.36M1406.91 420.368V473.789M1406.91 420.368H1460.36M1406.91 473.789V527.211M1406.91 473.789H1460.36M1406.91 527.211V580.632M1406.91 527.211H1460.36M1406.91 580.632V634.053M1406.91 580.632H1460.36M1406.91 634.053V687.474M1406.91 634.053H1460.36M1406.91 687.474V740.895M1406.91 687.474H1460.36M1406.91 740.895V794.316M1406.91 740.895H1460.36M1406.91 794.316V847.737M1406.91 794.316H1460.36M1406.91 847.737V901.158M1406.91 847.737H1460.36M1406.91 901.158V954.579M1406.91 901.158H1460.36M1406.91 954.579V1008M1406.91 954.579H1460.36M1406.91 1008H1460.36M1460.36 -7V46.4211M1460.36 -7H1513.82M1460.36 46.4211V99.8421M1460.36 46.4211H1513.82M1460.36 99.8421V153.263M1460.36 99.8421H1513.82M1460.36 153.263V206.684M1460.36 153.263H1513.82M1460.36 206.684V260.105M1460.36 206.684H1513.82M1460.36 260.105V313.526M1460.36 260.105H1513.82M1460.36 313.526V366.947M1460.36 313.526H1513.82M1460.36 366.947V420.368M1460.36 366.947H1513.82M1460.36 420.368V473.789M1460.36 420.368H1513.82M1460.36 473.789V527.211M1460.36 473.789H1513.82M1460.36 527.211V580.632M1460.36 527.211H1513.82M1460.36 580.632V634.053M1460.36 580.632H1513.82M1460.36 634.053V687.474M1460.36 634.053H1513.82M1460.36 687.474V740.895M1460.36 687.474H1513.82M1460.36 740.895V794.316M1460.36 740.895H1513.82M1460.36 794.316V847.737M1460.36 794.316H1513.82M1460.36 847.737V901.158M1460.36 847.737H1513.82M1460.36 901.158V954.579M1460.36 901.158H1513.82M1460.36 954.579V1008M1460.36 954.579H1513.82M1460.36 1008H1513.82M1513.82 -7V46.4211M1513.82 -7H1567.27M1513.82 46.4211V99.8421M1513.82 46.4211H1567.27M1513.82 99.8421V153.263M1513.82 99.8421H1567.27M1513.82 153.263V206.684M1513.82 153.263H1567.27M1513.82 206.684V260.105M1513.82 206.684H1567.27M1513.82 260.105V313.526M1513.82 260.105H1567.27M1513.82 313.526V366.947M1513.82 313.526H1567.27M1513.82 366.947V420.368M1513.82 366.947H1567.27M1513.82 420.368V473.789M1513.82 420.368H1567.27M1513.82 473.789V527.211M1513.82 473.789H1567.27M1513.82 527.211V580.632M1513.82 527.211H1567.27M1513.82 580.632V634.053M1513.82 580.632H1567.27M1513.82 634.053V687.474M1513.82 634.053H1567.27M1513.82 687.474V740.895M1513.82 687.474H1567.27M1513.82 740.895V794.316M1513.82 740.895H1567.27M1513.82 794.316V847.737M1513.82 794.316H1567.27M1513.82 847.737V901.158M1513.82 847.737H1567.27M1513.82 901.158V954.579M1513.82 901.158H1567.27M1513.82 954.579V1008M1513.82 954.579H1567.27M1513.82 1008H1567.27M1567.27 -7V46.4211M1567.27 -7H1620.73M1567.27 46.4211V99.8421M1567.27 46.4211H1620.73M1567.27 99.8421V153.263M1567.27 99.8421H1620.73M1567.27 153.263V206.684M1567.27 153.263H1620.73M1567.27 206.684V260.105M1567.27 206.684H1620.73M1567.27 260.105V313.526M1567.27 260.105H1620.73M1567.27 313.526V366.947M1567.27 313.526H1620.73M1567.27 366.947V420.368M1567.27 366.947H1620.73M1567.27 420.368V473.789M1567.27 420.368H1620.73M1567.27 473.789V527.211M1567.27 473.789H1620.73M1567.27 527.211V580.632M1567.27 527.211H1620.73M1567.27 580.632V634.053M1567.27 580.632H1620.73M1567.27 634.053V687.474M1567.27 634.053H1620.73M1567.27 687.474V740.895M1567.27 687.474H1620.73M1567.27 740.895V794.316M1567.27 740.895H1620.73M1567.27 794.316V847.737M1567.27 794.316H1620.73M1567.27 847.737V901.158M1567.27 847.737H1620.73M1567.27 901.158V954.579M1567.27 901.158H1620.73M1567.27 954.579V1008M1567.27 954.579H1620.73M1567.27 1008H1620.73M1620.73 -7V46.4211M1620.73 -7H1674.18M1620.73 46.4211V99.8421M1620.73 46.4211H1674.18M1620.73 99.8421V153.263M1620.73 99.8421H1674.18M1620.73 153.263V206.684M1620.73 153.263H1674.18M1620.73 206.684V260.105M1620.73 206.684H1674.18M1620.73 260.105V313.526M1620.73 260.105H1674.18M1620.73 313.526V366.947M1620.73 313.526H1674.18M1620.73 366.947V420.368M1620.73 366.947H1674.18M1620.73 420.368V473.789M1620.73 420.368H1674.18M1620.73 473.789V527.211M1620.73 473.789H1674.18M1620.73 527.211V580.632M1620.73 527.211H1674.18M1620.73 580.632V634.053M1620.73 580.632H1674.18M1620.73 634.053V687.474M1620.73 634.053H1674.18M1620.73 687.474V740.895M1620.73 687.474H1674.18M1620.73 740.895V794.316M1620.73 740.895H1674.18M1620.73 794.316V847.737M1620.73 794.316H1674.18M1620.73 847.737V901.158M1620.73 847.737H1674.18M1620.73 901.158V954.579M1620.73 901.158H1674.18M1620.73 954.579V1008M1620.73 954.579H1674.18M1620.73 1008H1674.18M1674.18 -7V46.4211M1674.18 -7H1727.64M1674.18 46.4211V99.8421M1674.18 46.4211H1727.64M1674.18 99.8421V153.263M1674.18 99.8421H1727.64M1674.18 153.263V206.684M1674.18 153.263H1727.64M1674.18 206.684V260.105M1674.18 206.684H1727.64M1674.18 260.105V313.526M1674.18 260.105H1727.64M1674.18 313.526V366.947M1674.18 313.526H1727.64M1674.18 366.947V420.368M1674.18 366.947H1727.64M1674.18 420.368V473.789M1674.18 420.368H1727.64M1674.18 473.789V527.211M1674.18 473.789H1727.64M1674.18 527.211V580.632M1674.18 527.211H1727.64M1674.18 580.632V634.053M1674.18 580.632H1727.64M1674.18 634.053V687.474M1674.18 634.053H1727.64M1674.18 687.474V740.895M1674.18 687.474H1727.64M1674.18 740.895V794.316M1674.18 740.895H1727.64M1674.18 794.316V847.737M1674.18 794.316H1727.64M1674.18 847.737V901.158M1674.18 847.737H1727.64M1674.18 901.158V954.579M1674.18 901.158H1727.64M1674.18 954.579V1008M1674.18 954.579H1727.64M1674.18 1008H1727.64M1727.64 -7V46.4211M1727.64 -7H1781.09M1727.64 46.4211V99.8421M1727.64 46.4211H1781.09M1727.64 99.8421V153.263M1727.64 99.8421H1781.09M1727.64 153.263V206.684M1727.64 153.263H1781.09M1727.64 206.684V260.105M1727.64 206.684H1781.09M1727.64 260.105V313.526M1727.64 260.105H1781.09M1727.64 313.526V366.947M1727.64 313.526H1781.09M1727.64 366.947V420.368M1727.64 366.947H1781.09M1727.64 420.368V473.789M1727.64 420.368H1781.09M1727.64 473.789V527.211M1727.64 473.789H1781.09M1727.64 527.211V580.632M1727.64 527.211H1781.09M1727.64 580.632V634.053M1727.64 580.632H1781.09M1727.64 634.053V687.474M1727.64 634.053H1781.09M1727.64 687.474V740.895M1727.64 687.474H1781.09M1727.64 740.895V794.316M1727.64 740.895H1781.09M1727.64 794.316V847.737M1727.64 794.316H1781.09M1727.64 847.737V901.158M1727.64 847.737H1781.09M1727.64 901.158V954.579M1727.64 901.158H1781.09M1727.64 954.579V1008M1727.64 954.579H1781.09M1727.64 1008H1781.09M1781.09 -7V46.4211M1781.09 -7H1834.55M1781.09 46.4211V99.8421M1781.09 46.4211H1834.55M1781.09 99.8421V153.263M1781.09 99.8421H1834.55M1781.09 153.263V206.684M1781.09 153.263H1834.55M1781.09 206.684V260.105M1781.09 206.684H1834.55M1781.09 260.105V313.526M1781.09 260.105H1834.55M1781.09 313.526V366.947M1781.09 313.526H1834.55M1781.09 366.947V420.368M1781.09 366.947H1834.55M1781.09 420.368V473.789M1781.09 420.368H1834.55M1781.09 473.789V527.211M1781.09 473.789H1834.55M1781.09 527.211V580.632M1781.09 527.211H1834.55M1781.09 580.632V634.053M1781.09 580.632H1834.55M1781.09 634.053V687.474M1781.09 634.053H1834.55M1781.09 687.474V740.895M1781.09 687.474H1834.55M1781.09 740.895V794.316M1781.09 740.895H1834.55M1781.09 794.316V847.737M1781.09 794.316H1834.55M1781.09 847.737V901.158M1781.09 847.737H1834.55M1781.09 901.158V954.579M1781.09 901.158H1834.55M1781.09 954.579V1008M1781.09 954.579H1834.55M1781.09 1008H1834.55M1834.55 -7V46.4211M1834.55 -7H1888V46.4211M1834.55 46.4211V99.8421M1834.55 46.4211H1888M1834.55 99.8421V153.263M1834.55 99.8421H1888M1834.55 153.263V206.684M1834.55 153.263H1888M1834.55 206.684V260.105M1834.55 206.684H1888M1834.55 260.105V313.526M1834.55 260.105H1888M1834.55 313.526V366.947M1834.55 313.526H1888M1834.55 366.947V420.368M1834.55 366.947H1888M1834.55 420.368V473.789M1834.55 420.368H1888M1834.55 473.789V527.211M1834.55 473.789H1888M1834.55 527.211V580.632M1834.55 527.211H1888M1834.55 580.632V634.053M1834.55 580.632H1888M1834.55 634.053V687.474M1834.55 634.053H1888M1834.55 687.474V740.895M1834.55 687.474H1888M1834.55 740.895V794.316M1834.55 740.895H1888M1834.55 794.316V847.737M1834.55 794.316H1888M1834.55 847.737V901.158M1834.55 847.737H1888M1834.55 901.158V954.579M1834.55 901.158H1888M1834.55 954.579V1008M1834.55 954.579H1888M1834.55 1008H1888V954.579M1888 46.4211V99.8421M1888 99.8421V153.263M1888 153.263V206.684M1888 206.684V260.105M1888 260.105V313.526M1888 313.526V366.947M1888 366.947V420.368M1888 420.368V473.789M1888 473.789V527.211M1888 527.211V580.632M1888 580.632V634.053M1888 634.053V687.474M1888 687.474V740.895M1888 740.895V794.316M1888 794.316V847.737M1888 847.737V901.158M1888 901.158V954.579" stroke="url(#paint0_radial_209_29)" stroke-opacity="0.15" stroke-width="0.5"/>
<g filter="url(#filter0_f_209_29)">
<ellipse cx="1332" cy="949" rx="382" ry="129" fill="white"/>
</g>
<path d="M1268 397H1376V500H1268V397Z" fill="url(#paint1_linear_209_29)"/>
<path d="M1376 501H1484V604H1376V501Z" fill="url(#paint2_linear_209_29)"/>
<path d="M1160 501H1268V604H1160V501Z" fill="url(#paint3_linear_209_29)"/>
<path d="M1268 602H1376V705H1268V602Z" fill="url(#paint4_linear_209_29)"/>
<path d="M1376 706H1484V809H1376V706Z" fill="url(#paint5_linear_209_29)"/>
<path d="M1160 706H1268V809H1160V706Z" fill="url(#paint6_linear_209_29)"/>
<path d="M728 706H836V809H728V706Z" fill="url(#paint7_linear_209_29)"/>
<path d="M1268 807H1376V910H1268V807Z" fill="url(#paint8_linear_209_29)"/>
<path d="M1052 807H1160V910H1052V807Z" fill="url(#paint9_linear_209_29)"/>
<path d="M836 807H944V910H836V807Z" fill="url(#paint10_linear_209_29)"/>
<path d="M620 807H728V910H620V807Z" fill="url(#paint11_linear_209_29)"/>
<path d="M1376 911H1484V1014H1376V911Z" fill="url(#paint12_linear_209_29)"/>
<path d="M1160 911H1268V1014H1160V911Z" fill="url(#paint13_linear_209_29)"/>
<path d="M944 911H1052V1014H944V911Z" fill="url(#paint14_linear_209_29)"/>
<path d="M728 911H836V1014H728V911Z" fill="url(#paint15_linear_209_29)"/>
<path d="M512 911H620V1014H512V911Z" fill="url(#paint16_linear_209_29)"/>
<g filter="url(#filter1_d_209_29)">
<path d="M964 705H1072V808H964V705Z" fill="white"/>
<path d="M867 610H975V713H867V610Z" fill="white"/>
<path d="M769 522H877V625H769V522Z" fill="white"/>
<path d="M1066 431H1160V717H1066V431Z" fill="white"/>
</g>
</g>
<rect x="0.5" y="0.5" width="1423" height="1007" rx="23.5" stroke="white" stroke-opacity="0.1"/>
<defs>
<filter id="filter0_f_209_29" x="286" y="156" width="2092" height="1586" filterUnits="userSpaceOnUse" color-interpolation-filters="sRGB">
<feFlood flood-opacity="0" result="BackgroundImageFix"/>
<feBlend mode="normal" in="SourceGraphic" in2="BackgroundImageFix" result="shape"/>
<feGaussianBlur stdDeviation="332" result="effect1_foregroundBlur_209_29"/>
</filter>
<filter id="filter1_d_209_29" x="569" y="231" width="791" height="777" filterUnits="userSpaceOnUse" color-interpolation-filters="sRGB">
<feFlood flood-opacity="0" result="BackgroundImageFix"/>
<feColorMatrix in="SourceAlpha" type="matrix" values="0 0 0 0 0 0 0 0 0 0 0 0 0 0 0 0 0 0 127 0" result="hardAlpha"/>
<feOffset/>
<feGaussianBlur stdDeviation="100"/>
<feComposite in2="hardAlpha" operator="out"/>
<feColorMatrix type="matrix" values="0 0 0 0 1 0 0 0 0 1 0 0 0 0 1 0 0 0 0.25 0"/>
<feBlend mode="normal" in2="BackgroundImageFix" result="effect1_dropShadow_209_29"/>
<feBlend mode="normal" in="SourceGraphic" in2="effect1_dropShadow_209_29" result="shape"/>
</filter>
<radialGradient id="paint0_radial_209_29" cx="0" cy="0" r="1" gradientUnits="userSpaceOnUse" gradientTransform="translate(-8.49995 -7.00006) rotate(35.1864) scale(881.581 1649.62)">
<stop stop-color="white"/>
<stop offset="1" stop-color="white" stop-opacity="0.2"/>
</radialGradient>
<linearGradient id="paint1_linear_209_29" x1="710" y1="520.5" x2="1429" y2="1014" gradientUnits="userSpaceOnUse">
<stop stop-color="white" stop-opacity="0"/>
<stop offset="1" stop-color="white" stop-opacity="0.05"/>
</linearGradient>
<linearGradient id="paint2_linear_209_29" x1="710" y1="520.5" x2="1429" y2="1014" gradientUnits="userSpaceOnUse">
<stop stop-color="white" stop-opacity="0"/>
<stop offset="1" stop-color="white" stop-opacity="0.05"/>
</linearGradient>
<linearGradient id="paint3_linear_209_29" x1="710" y1="520.5" x2="1429" y2="1014" gradientUnits="userSpaceOnUse">
<stop stop-color="white" stop-opacity="0"/>
<stop offset="1" stop-color="white" stop-opacity="0.05"/>
</linearGradient>
<linearGradient id="paint4_linear_209_29" x1="710" y1="520.5" x2="1429" y2="1014" gradientUnits="userSpaceOnUse">
<stop stop-color="white" stop-opacity="0"/>
<stop offset="1" stop-color="white" stop-opacity="0.05"/>
</linearGradient>
<linearGradient id="paint5_linear_209_29" x1="710" y1="520.5" x2="1429" y2="1014" gradientUnits="userSpaceOnUse">
<stop stop-color="white" stop-opacity="0"/>
<stop offset="1" stop-color="white" stop-opacity="0.05"/>
</linearGradient>
<linearGradient id="paint6_linear_209_29" x1="710" y1="520.5" x2="1429" y2="1014" gradientUnits="userSpaceOnUse">
<stop stop-color="white" stop-opacity="0"/>
<stop offset="1" stop-color="white" stop-opacity="0.05"/>
</linearGradient>
<linearGradient id="paint7_linear_209_29" x1="710" y1="520.5" x2="1429" y2="1014" gradientUnits="userSpaceOnUse">
<stop stop-color="white" stop-opacity="0"/>
<stop offset="1" stop-color="white" stop-opacity="0.05"/>
</linearGradient>
<linearGradient id="paint8_linear_209_29" x1="710" y1="520.5" x2="1429" y2="1014" gradientUnits="userSpaceOnUse">
<stop stop-color="white" stop-opacity="0"/>
<stop offset="1" stop-color="white" stop-opacity="0.05"/>
</linearGradient>
<linearGradient id="paint9_linear_209_29" x1="710" y1="520.5" x2="1429" y2="1014" gradientUnits="userSpaceOnUse">
<stop stop-color="white" stop-opacity="0"/>
<stop offset="1" stop-color="white" stop-opacity="0.05"/>
</linearGradient>
<linearGradient id="paint10_linear_209_29" x1="710" y1="520.5" x2="1429" y2="1014" gradientUnits="userSpaceOnUse">
<stop stop-color="white" stop-opacity="0"/>
<stop offset="1" stop-color="white" stop-opacity="0.05"/>
</linearGradient>
<linearGradient id="paint11_linear_209_29" x1="710" y1="520.5" x2="1429" y2="1014" gradientUnits="userSpaceOnUse">
<stop stop-color="white" stop-opacity="0"/>
<stop offset="1" stop-color="white" stop-opacity="0.05"/>
</linearGradient>
<linearGradient id="paint12_linear_209_29" x1="710" y1="520.5" x2="1429" y2="1014" gradientUnits="userSpaceOnUse">
<stop stop-color="white" stop-opacity="0"/>
<stop offset="1" stop-color="white" stop-opacity="0.05"/>
</linearGradient>
<linearGradient id="paint13_linear_209_29" x1="710" y1="520.5" x2="1429" y2="1014" gradientUnits="userSpaceOnUse">
<stop stop-color="white" stop-opacity="0"/>
<stop offset="1" stop-color="white" stop-opacity="0.05"/>
</linearGradient>
<linearGradient id="paint14_linear_209_29" x1="710" y1="520.5" x2="1429" y2="1014" gradientUnits="userSpaceOnUse">
<stop stop-color="white" stop-opacity="0"/>
<stop offset="1" stop-color="white" stop-opacity="0.05"/>
</linearGradient>
<linearGradient id="paint15_linear_209_29" x1="710" y1="520.5" x2="1429" y2="1014" gradientUnits="userSpaceOnUse">
<stop stop-color="white" stop-opacity="0"/>
<stop offset="1" stop-color="white" stop-opacity="0.05"/>
</linearGradient>
<linearGradient id="paint16_linear_209_29" x1="710" y1="520.5" x2="1429" y2="1014" gradientUnits="userSpaceOnUse">
<stop stop-color="white" stop-opacity="0"/>
<stop offset="1" stop-color="white" stop-opacity="0.05"/>
</linearGradient>
<clipPath id="clip0_209_29">
<rect width="1424" height="1008" rx="24" fill="white"/>
</clipPath>
</defs>
</svg>
