<svg width="374" height="828" viewBox="0 0 374 828" fill="none" xmlns="http://www.w3.org/2000/svg">
<g clip-path="url(#clip0_244_571)">
<rect width="374" height="828" rx="16" fill="#121212"/>
<path d="M-762.545 -6H-807V38.4211M-762.545 -6V38.4211M-762.545 -6H-718.091M-762.545 38.4211H-807M-762.545 38.4211V82.8421M-762.545 38.4211H-718.091M-807 38.4211V82.8421M-762.545 82.8421H-807M-762.545 82.8421V127.263M-762.545 82.8421H-718.091M-807 82.8421V127.263M-762.545 127.263H-807M-762.545 127.263V171.684M-762.545 127.263H-718.091M-807 127.263V171.684M-762.545 171.684H-807M-762.545 171.684V216.105M-762.545 171.684H-718.091M-807 171.684V216.105M-762.545 216.105H-807M-762.545 216.105V260.526M-762.545 216.105H-718.091M-807 216.105V260.526M-762.545 260.526H-807M-762.545 260.526V304.947M-762.545 260.526H-718.091M-807 260.526V304.947M-762.545 304.947H-807M-762.545 304.947V349.368M-762.545 304.947H-718.091M-807 304.947V349.368M-762.545 349.368H-807M-762.545 349.368V393.789M-762.545 349.368H-718.091M-807 349.368V393.789M-762.545 393.789H-807M-762.545 393.789V438.211M-762.545 393.789H-718.091M-807 393.789V438.211M-762.545 438.211H-807M-762.545 438.211V482.632M-762.545 438.211H-718.091M-807 438.211V482.632M-762.545 482.632H-807M-762.545 482.632V527.053M-762.545 482.632H-718.091M-807 482.632V527.053M-762.545 527.053H-807M-762.545 527.053V571.474M-762.545 527.053H-718.091M-807 527.053V571.474M-762.545 571.474H-807M-762.545 571.474V615.895M-762.545 571.474H-718.091M-807 571.474V615.895M-762.545 615.895H-807M-762.545 615.895V660.316M-762.545 615.895H-718.091M-807 615.895V660.316M-762.545 660.316H-807M-762.545 660.316V704.737M-762.545 660.316H-718.091M-807 660.316V704.737M-762.545 704.737H-807M-762.545 704.737V749.158M-762.545 704.737H-718.091M-807 704.737V749.158M-762.545 749.158H-807M-762.545 749.158V793.579M-762.545 749.158H-718.091M-807 749.158V793.579M-762.545 793.579H-807M-762.545 793.579V838M-762.545 793.579H-718.091M-807 793.579V838H-762.545M-762.545 838H-718.091M-718.091 -6V38.4211M-718.091 -6H-673.636M-718.091 38.4211V82.8421M-718.091 38.4211H-673.636M-718.091 82.8421V127.263M-718.091 82.8421H-673.636M-718.091 127.263V171.684M-718.091 127.263H-673.636M-718.091 171.684V216.105M-718.091 171.684H-673.636M-718.091 216.105V260.526M-718.091 216.105H-673.636M-718.091 260.526V304.947M-718.091 260.526H-673.636M-718.091 304.947V349.368M-718.091 304.947H-673.636M-718.091 349.368V393.789M-718.091 349.368H-673.636M-718.091 393.789V438.211M-718.091 393.789H-673.636M-718.091 438.211V482.632M-718.091 438.211H-673.636M-718.091 482.632V527.053M-718.091 482.632H-673.636M-718.091 527.053V571.474M-718.091 527.053H-673.636M-718.091 571.474V615.895M-718.091 571.474H-673.636M-718.091 615.895V660.316M-718.091 615.895H-673.636M-718.091 660.316V704.737M-718.091 660.316H-673.636M-718.091 704.737V749.158M-718.091 704.737H-673.636M-718.091 749.158V793.579M-718.091 749.158H-673.636M-718.091 793.579V838M-718.091 793.579H-673.636M-718.091 838H-673.636M-673.636 -6V38.4211M-673.636 -6H-629.182M-673.636 38.4211V82.8421M-673.636 38.4211H-629.182M-673.636 82.8421V127.263M-673.636 82.8421H-629.182M-673.636 127.263V171.684M-673.636 127.263H-629.182M-673.636 171.684V216.105M-673.636 171.684H-629.182M-673.636 216.105V260.526M-673.636 216.105H-629.182M-673.636 260.526V304.947M-673.636 260.526H-629.182M-673.636 304.947V349.368M-673.636 304.947H-629.182M-673.636 349.368V393.789M-673.636 349.368H-629.182M-673.636 393.789V438.211M-673.636 393.789H-629.182M-673.636 438.211V482.632M-673.636 438.211H-629.182M-673.636 482.632V527.053M-673.636 482.632H-629.182M-673.636 527.053V571.474M-673.636 527.053H-629.182M-673.636 571.474V615.895M-673.636 571.474H-629.182M-673.636 615.895V660.316M-673.636 615.895H-629.182M-673.636 660.316V704.737M-673.636 660.316H-629.182M-673.636 704.737V749.158M-673.636 704.737H-629.182M-673.636 749.158V793.579M-673.636 749.158H-629.182M-673.636 793.579V838M-673.636 793.579H-629.182M-673.636 838H-629.182M-629.182 -6V38.4211M-629.182 -6H-584.727M-629.182 38.4211V82.8421M-629.182 38.4211H-584.727M-629.182 82.8421V127.263M-629.182 82.8421H-584.727M-629.182 127.263V171.684M-629.182 127.263H-584.727M-629.182 171.684V216.105M-629.182 171.684H-584.727M-629.182 216.105V260.526M-629.182 216.105H-584.727M-629.182 260.526V304.947M-629.182 260.526H-584.727M-629.182 304.947V349.368M-629.182 304.947H-584.727M-629.182 349.368V393.789M-629.182 349.368H-584.727M-629.182 393.789V438.211M-629.182 393.789H-584.727M-629.182 438.211V482.632M-629.182 438.211H-584.727M-629.182 482.632V527.053M-629.182 482.632H-584.727M-629.182 527.053V571.474M-629.182 527.053H-584.727M-629.182 571.474V615.895M-629.182 571.474H-584.727M-629.182 615.895V660.316M-629.182 615.895H-584.727M-629.182 660.316V704.737M-629.182 660.316H-584.727M-629.182 704.737V749.158M-629.182 704.737H-584.727M-629.182 749.158V793.579M-629.182 749.158H-584.727M-629.182 793.579V838M-629.182 793.579H-584.727M-629.182 838H-584.727M-584.727 -6V38.4211M-584.727 -6H-540.273M-584.727 38.4211V82.8421M-584.727 38.4211H-540.273M-584.727 82.8421V127.263M-584.727 82.8421H-540.273M-584.727 127.263V171.684M-584.727 127.263H-540.273M-584.727 171.684V216.105M-584.727 171.684H-540.273M-584.727 216.105V260.526M-584.727 216.105H-540.273M-584.727 260.526V304.947M-584.727 260.526H-540.273M-584.727 304.947V349.368M-584.727 304.947H-540.273M-584.727 349.368V393.789M-584.727 349.368H-540.273M-584.727 393.789V438.211M-584.727 393.789H-540.273M-584.727 438.211V482.632M-584.727 438.211H-540.273M-584.727 482.632V527.053M-584.727 482.632H-540.273M-584.727 527.053V571.474M-584.727 527.053H-540.273M-584.727 571.474V615.895M-584.727 571.474H-540.273M-584.727 615.895V660.316M-584.727 615.895H-540.273M-584.727 660.316V704.737M-584.727 660.316H-540.273M-584.727 704.737V749.158M-584.727 704.737H-540.273M-584.727 749.158V793.579M-584.727 749.158H-540.273M-584.727 793.579V838M-584.727 793.579H-540.273M-584.727 838H-540.273M-540.273 -6V38.4211M-540.273 -6H-495.818M-540.273 38.4211V82.8421M-540.273 38.4211H-495.818M-540.273 82.8421V127.263M-540.273 82.8421H-495.818M-540.273 127.263V171.684M-540.273 127.263H-495.818M-540.273 171.684V216.105M-540.273 171.684H-495.818M-540.273 216.105V260.526M-540.273 216.105H-495.818M-540.273 260.526V304.947M-540.273 260.526H-495.818M-540.273 304.947V349.368M-540.273 304.947H-495.818M-540.273 349.368V393.789M-540.273 349.368H-495.818M-540.273 393.789V438.211M-540.273 393.789H-495.818M-540.273 438.211V482.632M-540.273 438.211H-495.818M-540.273 482.632V527.053M-540.273 482.632H-495.818M-540.273 527.053V571.474M-540.273 527.053H-495.818M-540.273 571.474V615.895M-540.273 571.474H-495.818M-540.273 615.895V660.316M-540.273 615.895H-495.818M-540.273 660.316V704.737M-540.273 660.316H-495.818M-540.273 704.737V749.158M-540.273 704.737H-495.818M-540.273 749.158V793.579M-540.273 749.158H-495.818M-540.273 793.579V838M-540.273 793.579H-495.818M-540.273 838H-495.818M-495.818 -6V38.4211M-495.818 -6H-451.364M-495.818 38.4211V82.8421M-495.818 38.4211H-451.364M-495.818 82.8421V127.263M-495.818 82.8421H-451.364M-495.818 127.263V171.684M-495.818 127.263H-451.364M-495.818 171.684V216.105M-495.818 171.684H-451.364M-495.818 216.105V260.526M-495.818 216.105H-451.364M-495.818 260.526V304.947M-495.818 260.526H-451.364M-495.818 304.947V349.368M-495.818 304.947H-451.364M-495.818 349.368V393.789M-495.818 349.368H-451.364M-495.818 393.789V438.211M-495.818 393.789H-451.364M-495.818 438.211V482.632M-495.818 438.211H-451.364M-495.818 482.632V527.053M-495.818 482.632H-451.364M-495.818 527.053V571.474M-495.818 527.053H-451.364M-495.818 571.474V615.895M-495.818 571.474H-451.364M-495.818 615.895V660.316M-495.818 615.895H-451.364M-495.818 660.316V704.737M-495.818 660.316H-451.364M-495.818 704.737V749.158M-495.818 704.737H-451.364M-495.818 749.158V793.579M-495.818 749.158H-451.364M-495.818 793.579V838M-495.818 793.579H-451.364M-495.818 838H-451.364M-451.364 -6V38.4211M-451.364 -6H-406.909M-451.364 38.4211V82.8421M-451.364 38.4211H-406.909M-451.364 82.8421V127.263M-451.364 82.8421H-406.909M-451.364 127.263V171.684M-451.364 127.263H-406.909M-451.364 171.684V216.105M-451.364 171.684H-406.909M-451.364 216.105V260.526M-451.364 216.105H-406.909M-451.364 260.526V304.947M-451.364 260.526H-406.909M-451.364 304.947V349.368M-451.364 304.947H-406.909M-451.364 349.368V393.789M-451.364 349.368H-406.909M-451.364 393.789V438.211M-451.364 393.789H-406.909M-451.364 438.211V482.632M-451.364 438.211H-406.909M-451.364 482.632V527.053M-451.364 482.632H-406.909M-451.364 527.053V571.474M-451.364 527.053H-406.909M-451.364 571.474V615.895M-451.364 571.474H-406.909M-451.364 615.895V660.316M-451.364 615.895H-406.909M-451.364 660.316V704.737M-451.364 660.316H-406.909M-451.364 704.737V749.158M-451.364 704.737H-406.909M-451.364 749.158V793.579M-451.364 749.158H-406.909M-451.364 793.579V838M-451.364 793.579H-406.909M-451.364 838H-406.909M-406.909 -6V38.4211M-406.909 -6H-362.455M-406.909 38.4211V82.8421M-406.909 38.4211H-362.455M-406.909 82.8421V127.263M-406.909 82.8421H-362.455M-406.909 127.263V171.684M-406.909 127.263H-362.455M-406.909 171.684V216.105M-406.909 171.684H-362.455M-406.909 216.105V260.526M-406.909 216.105H-362.455M-406.909 260.526V304.947M-406.909 260.526H-362.455M-406.909 304.947V349.368M-406.909 304.947H-362.455M-406.909 349.368V393.789M-406.909 349.368H-362.455M-406.909 393.789V438.211M-406.909 393.789H-362.455M-406.909 438.211V482.632M-406.909 438.211H-362.455M-406.909 482.632V527.053M-406.909 482.632H-362.455M-406.909 527.053V571.474M-406.909 527.053H-362.455M-406.909 571.474V615.895M-406.909 571.474H-362.455M-406.909 615.895V660.316M-406.909 615.895H-362.455M-406.909 660.316V704.737M-406.909 660.316H-362.455M-406.909 704.737V749.158M-406.909 704.737H-362.455M-406.909 749.158V793.579M-406.909 749.158H-362.455M-406.909 793.579V838M-406.909 793.579H-362.455M-406.909 838H-362.455M-362.455 -6V38.4211M-362.455 -6H-318M-362.455 38.4211V82.8421M-362.455 38.4211H-318M-362.455 82.8421V127.263M-362.455 82.8421H-318M-362.455 127.263V171.684M-362.455 127.263H-318M-362.455 171.684V216.105M-362.455 171.684H-318M-362.455 216.105V260.526M-362.455 216.105H-318M-362.455 260.526V304.947M-362.455 260.526H-318M-362.455 304.947V349.368M-362.455 304.947H-318M-362.455 349.368V393.789M-362.455 349.368H-318M-362.455 393.789V438.211M-362.455 393.789H-318M-362.455 438.211V482.632M-362.455 438.211H-318M-362.455 482.632V527.053M-362.455 482.632H-318M-362.455 527.053V571.474M-362.455 527.053H-318M-362.455 571.474V615.895M-362.455 571.474H-318M-362.455 615.895V660.316M-362.455 615.895H-318M-362.455 660.316V704.737M-362.455 660.316H-318M-362.455 704.737V749.158M-362.455 704.737H-318M-362.455 749.158V793.579M-362.455 749.158H-318M-362.455 793.579V838M-362.455 793.579H-318M-362.455 838H-318M-318 -6V38.4211M-318 -6H-273.545M-318 38.4211V82.8421M-318 38.4211H-273.545M-318 82.8421V127.263M-318 82.8421H-273.545M-318 127.263V171.684M-318 127.263H-273.545M-318 171.684V216.105M-318 171.684H-273.545M-318 216.105V260.526M-318 216.105H-273.545M-318 260.526V304.947M-318 260.526H-273.545M-318 304.947V349.368M-318 304.947H-273.545M-318 349.368V393.789M-318 349.368H-273.545M-318 393.789V438.211M-318 393.789H-273.545M-318 438.211V482.632M-318 438.211H-273.545M-318 482.632V527.053M-318 482.632H-273.545M-318 527.053V571.474M-318 527.053H-273.545M-318 571.474V615.895M-318 571.474H-273.545M-318 615.895V660.316M-318 615.895H-273.545M-318 660.316V704.737M-318 660.316H-273.545M-318 704.737V749.158M-318 704.737H-273.545M-318 749.158V793.579M-318 749.158H-273.545M-318 793.579V838M-318 793.579H-273.545M-318 838H-273.545M-273.545 -6V38.4211M-273.545 -6H-229.091M-273.545 38.4211V82.8421M-273.545 38.4211H-229.091M-273.545 82.8421V127.263M-273.545 82.8421H-229.091M-273.545 127.263V171.684M-273.545 127.263H-229.091M-273.545 171.684V216.105M-273.545 171.684H-229.091M-273.545 216.105V260.526M-273.545 216.105H-229.091M-273.545 260.526V304.947M-273.545 260.526H-229.091M-273.545 304.947V349.368M-273.545 304.947H-229.091M-273.545 349.368V393.789M-273.545 349.368H-229.091M-273.545 393.789V438.211M-273.545 393.789H-229.091M-273.545 438.211V482.632M-273.545 438.211H-229.091M-273.545 482.632V527.053M-273.545 482.632H-229.091M-273.545 527.053V571.474M-273.545 527.053H-229.091M-273.545 571.474V615.895M-273.545 571.474H-229.091M-273.545 615.895V660.316M-273.545 615.895H-229.091M-273.545 660.316V704.737M-273.545 660.316H-229.091M-273.545 704.737V749.158M-273.545 704.737H-229.091M-273.545 749.158V793.579M-273.545 749.158H-229.091M-273.545 793.579V838M-273.545 793.579H-229.091M-273.545 838H-229.091M-229.091 -6V38.4211M-229.091 -6H-184.636M-229.091 38.4211V82.8421M-229.091 38.4211H-184.636M-229.091 82.8421V127.263M-229.091 82.8421H-184.636M-229.091 127.263V171.684M-229.091 127.263H-184.636M-229.091 171.684V216.105M-229.091 171.684H-184.636M-229.091 216.105V260.526M-229.091 216.105H-184.636M-229.091 260.526V304.947M-229.091 260.526H-184.636M-229.091 304.947V349.368M-229.091 304.947H-184.636M-229.091 349.368V393.789M-229.091 349.368H-184.636M-229.091 393.789V438.211M-229.091 393.789H-184.636M-229.091 438.211V482.632M-229.091 438.211H-184.636M-229.091 482.632V527.053M-229.091 482.632H-184.636M-229.091 527.053V571.474M-229.091 527.053H-184.636M-229.091 571.474V615.895M-229.091 571.474H-184.636M-229.091 615.895V660.316M-229.091 615.895H-184.636M-229.091 660.316V704.737M-229.091 660.316H-184.636M-229.091 704.737V749.158M-229.091 704.737H-184.636M-229.091 749.158V793.579M-229.091 749.158H-184.636M-229.091 793.579V838M-229.091 793.579H-184.636M-229.091 838H-184.636M-184.636 -6V38.4211M-184.636 -6H-140.182M-184.636 38.4211V82.8421M-184.636 38.4211H-140.182M-184.636 82.8421V127.263M-184.636 82.8421H-140.182M-184.636 127.263V171.684M-184.636 127.263H-140.182M-184.636 171.684V216.105M-184.636 171.684H-140.182M-184.636 216.105V260.526M-184.636 216.105H-140.182M-184.636 260.526V304.947M-184.636 260.526H-140.182M-184.636 304.947V349.368M-184.636 304.947H-140.182M-184.636 349.368V393.789M-184.636 349.368H-140.182M-184.636 393.789V438.211M-184.636 393.789H-140.182M-184.636 438.211V482.632M-184.636 438.211H-140.182M-184.636 482.632V527.053M-184.636 482.632H-140.182M-184.636 527.053V571.474M-184.636 527.053H-140.182M-184.636 571.474V615.895M-184.636 571.474H-140.182M-184.636 615.895V660.316M-184.636 615.895H-140.182M-184.636 660.316V704.737M-184.636 660.316H-140.182M-184.636 704.737V749.158M-184.636 704.737H-140.182M-184.636 749.158V793.579M-184.636 749.158H-140.182M-184.636 793.579V838M-184.636 793.579H-140.182M-184.636 838H-140.182M-140.182 -6V38.4211M-140.182 -6H-95.7273M-140.182 38.4211V82.8421M-140.182 38.4211H-95.7273M-140.182 82.8421V127.263M-140.182 82.8421H-95.7273M-140.182 127.263V171.684M-140.182 127.263H-95.7273M-140.182 171.684V216.105M-140.182 171.684H-95.7273M-140.182 216.105V260.526M-140.182 216.105H-95.7273M-140.182 260.526V304.947M-140.182 260.526H-95.7273M-140.182 304.947V349.368M-140.182 304.947H-95.7273M-140.182 349.368V393.789M-140.182 349.368H-95.7273M-140.182 393.789V438.211M-140.182 393.789H-95.7273M-140.182 438.211V482.632M-140.182 438.211H-95.7273M-140.182 482.632V527.053M-140.182 482.632H-95.7273M-140.182 527.053V571.474M-140.182 527.053H-95.7273M-140.182 571.474V615.895M-140.182 571.474H-95.7273M-140.182 615.895V660.316M-140.182 615.895H-95.7273M-140.182 660.316V704.737M-140.182 660.316H-95.7273M-140.182 704.737V749.158M-140.182 704.737H-95.7273M-140.182 749.158V793.579M-140.182 749.158H-95.7273M-140.182 793.579V838M-140.182 793.579H-95.7273M-140.182 838H-95.7273M-95.7273 -6V38.4211M-95.7273 -6H-51.2727M-95.7273 38.4211V82.8421M-95.7273 38.4211H-51.2727M-95.7273 82.8421V127.263M-95.7273 82.8421H-51.2727M-95.7273 127.263V171.684M-95.7273 127.263H-51.2727M-95.7273 171.684V216.105M-95.7273 171.684H-51.2727M-95.7273 216.105V260.526M-95.7273 216.105H-51.2727M-95.7273 260.526V304.947M-95.7273 260.526H-51.2727M-95.7273 304.947V349.368M-95.7273 304.947H-51.2727M-95.7273 349.368V393.789M-95.7273 349.368H-51.2727M-95.7273 393.789V438.211M-95.7273 393.789H-51.2727M-95.7273 438.211V482.632M-95.7273 438.211H-51.2727M-95.7273 482.632V527.053M-95.7273 482.632H-51.2727M-95.7273 527.053V571.474M-95.7273 527.053H-51.2727M-95.7273 571.474V615.895M-95.7273 571.474H-51.2727M-95.7273 615.895V660.316M-95.7273 615.895H-51.2727M-95.7273 660.316V704.737M-95.7273 660.316H-51.2727M-95.7273 704.737V749.158M-95.7273 704.737H-51.2727M-95.7273 749.158V793.579M-95.7273 749.158H-51.2727M-95.7273 793.579V838M-95.7273 793.579H-51.2727M-95.7273 838H-51.2727M-51.2727 -6V38.4211M-51.2727 -6H-6.81817M-51.2727 38.4211V82.8421M-51.2727 38.4211H-6.81817M-51.2727 82.8421V127.263M-51.2727 82.8421H-6.81817M-51.2727 127.263V171.684M-51.2727 127.263H-6.81817M-51.2727 171.684V216.105M-51.2727 171.684H-6.81817M-51.2727 216.105V260.526M-51.2727 216.105H-6.81817M-51.2727 260.526V304.947M-51.2727 260.526H-6.81817M-51.2727 304.947V349.368M-51.2727 304.947H-6.81817M-51.2727 349.368V393.789M-51.2727 349.368H-6.81817M-51.2727 393.789V438.211M-51.2727 393.789H-6.81817M-51.2727 438.211V482.632M-51.2727 438.211H-6.81817M-51.2727 482.632V527.053M-51.2727 482.632H-6.81817M-51.2727 527.053V571.474M-51.2727 527.053H-6.81817M-51.2727 571.474V615.895M-51.2727 571.474H-6.81817M-51.2727 615.895V660.316M-51.2727 615.895H-6.81817M-51.2727 660.316V704.737M-51.2727 660.316H-6.81817M-51.2727 704.737V749.158M-51.2727 704.737H-6.81817M-51.2727 749.158V793.579M-51.2727 749.158H-6.81817M-51.2727 793.579V838M-51.2727 793.579H-6.81817M-51.2727 838H-6.81817M-6.81817 -6V38.4211M-6.81817 -6H37.6364M-6.81817 38.4211V82.8421M-6.81817 38.4211H37.6364M-6.81817 82.8421V127.263M-6.81817 82.8421H37.6364M-6.81817 127.263V171.684M-6.81817 127.263H37.6364M-6.81817 171.684V216.105M-6.81817 171.684H37.6364M-6.81817 216.105V260.526M-6.81817 216.105H37.6364M-6.81817 260.526V304.947M-6.81817 260.526H37.6364M-6.81817 304.947V349.368M-6.81817 304.947H37.6364M-6.81817 349.368V393.789M-6.81817 349.368H37.6364M-6.81817 393.789V438.211M-6.81817 393.789H37.6364M-6.81817 438.211V482.632M-6.81817 438.211H37.6364M-6.81817 482.632V527.053M-6.81817 482.632H37.6364M-6.81817 527.053V571.474M-6.81817 527.053H37.6364M-6.81817 571.474V615.895M-6.81817 571.474H37.6364M-6.81817 615.895V660.316M-6.81817 615.895H37.6364M-6.81817 660.316V704.737M-6.81817 660.316H37.6364M-6.81817 704.737V749.158M-6.81817 704.737H37.6364M-6.81817 749.158V793.579M-6.81817 749.158H37.6364M-6.81817 793.579V838M-6.81817 793.579H37.6364M-6.81817 838H37.6364M37.6364 -6V38.4211M37.6364 -6H82.0909M37.6364 38.4211V82.8421M37.6364 38.4211H82.0909M37.6364 82.8421V127.263M37.6364 82.8421H82.0909M37.6364 127.263V171.684M37.6364 127.263H82.0909M37.6364 171.684V216.105M37.6364 171.684H82.0909M37.6364 216.105V260.526M37.6364 216.105H82.0909M37.6364 260.526V304.947M37.6364 260.526H82.0909M37.6364 304.947V349.368M37.6364 304.947H82.0909M37.6364 349.368V393.789M37.6364 349.368H82.0909M37.6364 393.789V438.211M37.6364 393.789H82.0909M37.6364 438.211V482.632M37.6364 438.211H82.0909M37.6364 482.632V527.053M37.6364 482.632H82.0909M37.6364 527.053V571.474M37.6364 527.053H82.0909M37.6364 571.474V615.895M37.6364 571.474H82.0909M37.6364 615.895V660.316M37.6364 615.895H82.0909M37.6364 660.316V704.737M37.6364 660.316H82.0909M37.6364 704.737V749.158M37.6364 704.737H82.0909M37.6364 749.158V793.579M37.6364 749.158H82.0909M37.6364 793.579V838M37.6364 793.579H82.0909M37.6364 838H82.0909M82.0909 -6V38.4211M82.0909 -6H126.545M82.0909 38.4211V82.8421M82.0909 38.4211H126.545M82.0909 82.8421V127.263M82.0909 82.8421H126.545M82.0909 127.263V171.684M82.0909 127.263H126.545M82.0909 171.684V216.105M82.0909 171.684H126.545M82.0909 216.105V260.526M82.0909 216.105H126.545M82.0909 260.526V304.947M82.0909 260.526H126.545M82.0909 304.947V349.368M82.0909 304.947H126.545M82.0909 349.368V393.789M82.0909 349.368H126.545M82.0909 393.789V438.211M82.0909 393.789H126.545M82.0909 438.211V482.632M82.0909 438.211H126.545M82.0909 482.632V527.053M82.0909 482.632H126.545M82.0909 527.053V571.474M82.0909 527.053H126.545M82.0909 571.474V615.895M82.0909 571.474H126.545M82.0909 615.895V660.316M82.0909 615.895H126.545M82.0909 660.316V704.737M82.0909 660.316H126.545M82.0909 704.737V749.158M82.0909 704.737H126.545M82.0909 749.158V793.579M82.0909 749.158H126.545M82.0909 793.579V838M82.0909 793.579H126.545M82.0909 838H126.545M126.545 -6V38.4211M126.545 -6H171M126.545 38.4211V82.8421M126.545 38.4211H171M126.545 82.8421V127.263M126.545 82.8421H171M126.545 127.263V171.684M126.545 127.263H171M126.545 171.684V216.105M126.545 171.684H171M126.545 216.105V260.526M126.545 216.105H171M126.545 260.526V304.947M126.545 260.526H171M126.545 304.947V349.368M126.545 304.947H171M126.545 349.368V393.789M126.545 349.368H171M126.545 393.789V438.211M126.545 393.789H171M126.545 438.211V482.632M126.545 438.211H171M126.545 482.632V527.053M126.545 482.632H171M126.545 527.053V571.474M126.545 527.053H171M126.545 571.474V615.895M126.545 571.474H171M126.545 615.895V660.316M126.545 615.895H171M126.545 660.316V704.737M126.545 660.316H171M126.545 704.737V749.158M126.545 704.737H171M126.545 749.158V793.579M126.545 749.158H171M126.545 793.579V838M126.545 793.579H171M126.545 838H171M171 -6V38.4211M171 -6H215.455M171 38.4211V82.8421M171 38.4211H215.455M171 82.8421V127.263M171 82.8421H215.455M171 127.263V171.684M171 127.263H215.455M171 171.684V216.105M171 171.684H215.455M171 216.105V260.526M171 216.105H215.455M171 260.526V304.947M171 260.526H215.455M171 304.947V349.368M171 304.947H215.455M171 349.368V393.789M171 349.368H215.455M171 393.789V438.211M171 393.789H215.455M171 438.211V482.632M171 438.211H215.455M171 482.632V527.053M171 482.632H215.455M171 527.053V571.474M171 527.053H215.455M171 571.474V615.895M171 571.474H215.455M171 615.895V660.316M171 615.895H215.455M171 660.316V704.737M171 660.316H215.455M171 704.737V749.158M171 704.737H215.455M171 749.158V793.579M171 749.158H215.455M171 793.579V838M171 793.579H215.455M171 838H215.455M215.455 -6V38.4211M215.455 -6H259.909M215.455 38.4211V82.8421M215.455 38.4211H259.909M215.455 82.8421V127.263M215.455 82.8421H259.909M215.455 127.263V171.684M215.455 127.263H259.909M215.455 171.684V216.105M215.455 171.684H259.909M215.455 216.105V260.526M215.455 216.105H259.909M215.455 260.526V304.947M215.455 260.526H259.909M215.455 304.947V349.368M215.455 304.947H259.909M215.455 349.368V393.789M215.455 349.368H259.909M215.455 393.789V438.211M215.455 393.789H259.909M215.455 438.211V482.632M215.455 438.211H259.909M215.455 482.632V527.053M215.455 482.632H259.909M215.455 527.053V571.474M215.455 527.053H259.909M215.455 571.474V615.895M215.455 571.474H259.909M215.455 615.895V660.316M215.455 615.895H259.909M215.455 660.316V704.737M215.455 660.316H259.909M215.455 704.737V749.158M215.455 704.737H259.909M215.455 749.158V793.579M215.455 749.158H259.909M215.455 793.579V838M215.455 793.579H259.909M215.455 838H259.909M259.909 -6V38.4211M259.909 -6H304.364M259.909 38.4211V82.8421M259.909 38.4211H304.364M259.909 82.8421V127.263M259.909 82.8421H304.364M259.909 127.263V171.684M259.909 127.263H304.364M259.909 171.684V216.105M259.909 171.684H304.364M259.909 216.105V260.526M259.909 216.105H304.364M259.909 260.526V304.947M259.909 260.526H304.364M259.909 304.947V349.368M259.909 304.947H304.364M259.909 349.368V393.789M259.909 349.368H304.364M259.909 393.789V438.211M259.909 393.789H304.364M259.909 438.211V482.632M259.909 438.211H304.364M259.909 482.632V527.053M259.909 482.632H304.364M259.909 527.053V571.474M259.909 527.053H304.364M259.909 571.474V615.895M259.909 571.474H304.364M259.909 615.895V660.316M259.909 615.895H304.364M259.909 660.316V704.737M259.909 660.316H304.364M259.909 704.737V749.158M259.909 704.737H304.364M259.909 749.158V793.579M259.909 749.158H304.364M259.909 793.579V838M259.909 793.579H304.364M259.909 838H304.364M304.364 -6V38.4211M304.364 -6H348.818M304.364 38.4211V82.8421M304.364 38.4211H348.818M304.364 82.8421V127.263M304.364 82.8421H348.818M304.364 127.263V171.684M304.364 127.263H348.818M304.364 171.684V216.105M304.364 171.684H348.818M304.364 216.105V260.526M304.364 216.105H348.818M304.364 260.526V304.947M304.364 260.526H348.818M304.364 304.947V349.368M304.364 304.947H348.818M304.364 349.368V393.789M304.364 349.368H348.818M304.364 393.789V438.211M304.364 393.789H348.818M304.364 438.211V482.632M304.364 438.211H348.818M304.364 482.632V527.053M304.364 482.632H348.818M304.364 527.053V571.474M304.364 527.053H348.818M304.364 571.474V615.895M304.364 571.474H348.818M304.364 615.895V660.316M304.364 615.895H348.818M304.364 660.316V704.737M304.364 660.316H348.818M304.364 704.737V749.158M304.364 704.737H348.818M304.364 749.158V793.579M304.364 749.158H348.818M304.364 793.579V838M304.364 793.579H348.818M304.364 838H348.818M348.818 -6V38.4211M348.818 -6H393.273M348.818 38.4211V82.8421M348.818 38.4211H393.273M348.818 82.8421V127.263M348.818 82.8421H393.273M348.818 127.263V171.684M348.818 127.263H393.273M348.818 171.684V216.105M348.818 171.684H393.273M348.818 216.105V260.526M348.818 216.105H393.273M348.818 260.526V304.947M348.818 260.526H393.273M348.818 304.947V349.368M348.818 304.947H393.273M348.818 349.368V393.789M348.818 349.368H393.273M348.818 393.789V438.211M348.818 393.789H393.273M348.818 438.211V482.632M348.818 438.211H393.273M348.818 482.632V527.053M348.818 482.632H393.273M348.818 527.053V571.474M348.818 527.053H393.273M348.818 571.474V615.895M348.818 571.474H393.273M348.818 615.895V660.316M348.818 615.895H393.273M348.818 660.316V704.737M348.818 660.316H393.273M348.818 704.737V749.158M348.818 704.737H393.273M348.818 749.158V793.579M348.818 749.158H393.273M348.818 793.579V838M348.818 793.579H393.273M348.818 838H393.273M393.273 -6V38.4211M393.273 -6H437.727M393.273 38.4211V82.8421M393.273 38.4211H437.727M393.273 82.8421V127.263M393.273 82.8421H437.727M393.273 127.263V171.684M393.273 127.263H437.727M393.273 171.684V216.105M393.273 171.684H437.727M393.273 216.105V260.526M393.273 216.105H437.727M393.273 260.526V304.947M393.273 260.526H437.727M393.273 304.947V349.368M393.273 304.947H437.727M393.273 349.368V393.789M393.273 349.368H437.727M393.273 393.789V438.211M393.273 393.789H437.727M393.273 438.211V482.632M393.273 438.211H437.727M393.273 482.632V527.053M393.273 482.632H437.727M393.273 527.053V571.474M393.273 527.053H437.727M393.273 571.474V615.895M393.273 571.474H437.727M393.273 615.895V660.316M393.273 615.895H437.727M393.273 660.316V704.737M393.273 660.316H437.727M393.273 704.737V749.158M393.273 704.737H437.727M393.273 749.158V793.579M393.273 749.158H437.727M393.273 793.579V838M393.273 793.579H437.727M393.273 838H437.727M437.727 -6V38.4211M437.727 -6H482.182M437.727 38.4211V82.8421M437.727 38.4211H482.182M437.727 82.8421V127.263M437.727 82.8421H482.182M437.727 127.263V171.684M437.727 127.263H482.182M437.727 171.684V216.105M437.727 171.684H482.182M437.727 216.105V260.526M437.727 216.105H482.182M437.727 260.526V304.947M437.727 260.526H482.182M437.727 304.947V349.368M437.727 304.947H482.182M437.727 349.368V393.789M437.727 349.368H482.182M437.727 393.789V438.211M437.727 393.789H482.182M437.727 438.211V482.632M437.727 438.211H482.182M437.727 482.632V527.053M437.727 482.632H482.182M437.727 527.053V571.474M437.727 527.053H482.182M437.727 571.474V615.895M437.727 571.474H482.182M437.727 615.895V660.316M437.727 615.895H482.182M437.727 660.316V704.737M437.727 660.316H482.182M437.727 704.737V749.158M437.727 704.737H482.182M437.727 749.158V793.579M437.727 749.158H482.182M437.727 793.579V838M437.727 793.579H482.182M437.727 838H482.182M482.182 -6V38.4211M482.182 -6H526.636M482.182 38.4211V82.8421M482.182 38.4211H526.636M482.182 82.8421V127.263M482.182 82.8421H526.636M482.182 127.263V171.684M482.182 127.263H526.636M482.182 171.684V216.105M482.182 171.684H526.636M482.182 216.105V260.526M482.182 216.105H526.636M482.182 260.526V304.947M482.182 260.526H526.636M482.182 304.947V349.368M482.182 304.947H526.636M482.182 349.368V393.789M482.182 349.368H526.636M482.182 393.789V438.211M482.182 393.789H526.636M482.182 438.211V482.632M482.182 438.211H526.636M482.182 482.632V527.053M482.182 482.632H526.636M482.182 527.053V571.474M482.182 527.053H526.636M482.182 571.474V615.895M482.182 571.474H526.636M482.182 615.895V660.316M482.182 615.895H526.636M482.182 660.316V704.737M482.182 660.316H526.636M482.182 704.737V749.158M482.182 704.737H526.636M482.182 749.158V793.579M482.182 749.158H526.636M482.182 793.579V838M482.182 793.579H526.636M482.182 838H526.636M526.636 -6V38.4211M526.636 -6H571.091M526.636 38.4211V82.8421M526.636 38.4211H571.091M526.636 82.8421V127.263M526.636 82.8421H571.091M526.636 127.263V171.684M526.636 127.263H571.091M526.636 171.684V216.105M526.636 171.684H571.091M526.636 216.105V260.526M526.636 216.105H571.091M526.636 260.526V304.947M526.636 260.526H571.091M526.636 304.947V349.368M526.636 304.947H571.091M526.636 349.368V393.789M526.636 349.368H571.091M526.636 393.789V438.211M526.636 393.789H571.091M526.636 438.211V482.632M526.636 438.211H571.091M526.636 482.632V527.053M526.636 482.632H571.091M526.636 527.053V571.474M526.636 527.053H571.091M526.636 571.474V615.895M526.636 571.474H571.091M526.636 615.895V660.316M526.636 615.895H571.091M526.636 660.316V704.737M526.636 660.316H571.091M526.636 704.737V749.158M526.636 704.737H571.091M526.636 749.158V793.579M526.636 749.158H571.091M526.636 793.579V838M526.636 793.579H571.091M526.636 838H571.091M571.091 -6V38.4211M571.091 -6H615.545M571.091 38.4211V82.8421M571.091 38.4211H615.545M571.091 82.8421V127.263M571.091 82.8421H615.545M571.091 127.263V171.684M571.091 127.263H615.545M571.091 171.684V216.105M571.091 171.684H615.545M571.091 216.105V260.526M571.091 216.105H615.545M571.091 260.526V304.947M571.091 260.526H615.545M571.091 304.947V349.368M571.091 304.947H615.545M571.091 349.368V393.789M571.091 349.368H615.545M571.091 393.789V438.211M571.091 393.789H615.545M571.091 438.211V482.632M571.091 438.211H615.545M571.091 482.632V527.053M571.091 482.632H615.545M571.091 527.053V571.474M571.091 527.053H615.545M571.091 571.474V615.895M571.091 571.474H615.545M571.091 615.895V660.316M571.091 615.895H615.545M571.091 660.316V704.737M571.091 660.316H615.545M571.091 704.737V749.158M571.091 704.737H615.545M571.091 749.158V793.579M571.091 749.158H615.545M571.091 793.579V838M571.091 793.579H615.545M571.091 838H615.545M615.545 -6V38.4211M615.545 -6H660M615.545 38.4211V82.8421M615.545 38.4211H660M615.545 82.8421V127.263M615.545 82.8421H660M615.545 127.263V171.684M615.545 127.263H660M615.545 171.684V216.105M615.545 171.684H660M615.545 216.105V260.526M615.545 216.105H660M615.545 260.526V304.947M615.545 260.526H660M615.545 304.947V349.368M615.545 304.947H660M615.545 349.368V393.789M615.545 349.368H660M615.545 393.789V438.211M615.545 393.789H660M615.545 438.211V482.632M615.545 438.211H660M615.545 482.632V527.053M615.545 482.632H660M615.545 527.053V571.474M615.545 527.053H660M615.545 571.474V615.895M615.545 571.474H660M615.545 615.895V660.316M615.545 615.895H660M615.545 660.316V704.737M615.545 660.316H660M615.545 704.737V749.158M615.545 704.737H660M615.545 749.158V793.579M615.545 749.158H660M615.545 793.579V838M615.545 793.579H660M615.545 838H660M660 -6V38.4211M660 -6H704.455M660 38.4211V82.8421M660 38.4211H704.455M660 82.8421V127.263M660 82.8421H704.455M660 127.263V171.684M660 127.263H704.455M660 171.684V216.105M660 171.684H704.455M660 216.105V260.526M660 216.105H704.455M660 260.526V304.947M660 260.526H704.455M660 304.947V349.368M660 304.947H704.455M660 349.368V393.789M660 349.368H704.455M660 393.789V438.211M660 393.789H704.455M660 438.211V482.632M660 438.211H704.455M660 482.632V527.053M660 482.632H704.455M660 527.053V571.474M660 527.053H704.455M660 571.474V615.895M660 571.474H704.455M660 615.895V660.316M660 615.895H704.455M660 660.316V704.737M660 660.316H704.455M660 704.737V749.158M660 704.737H704.455M660 749.158V793.579M660 749.158H704.455M660 793.579V838M660 793.579H704.455M660 838H704.455M704.455 -6V38.4211M704.455 -6H748.909M704.455 38.4211V82.8421M704.455 38.4211H748.909M704.455 82.8421V127.263M704.455 82.8421H748.909M704.455 127.263V171.684M704.455 127.263H748.909M704.455 171.684V216.105M704.455 171.684H748.909M704.455 216.105V260.526M704.455 216.105H748.909M704.455 260.526V304.947M704.455 260.526H748.909M704.455 304.947V349.368M704.455 304.947H748.909M704.455 349.368V393.789M704.455 349.368H748.909M704.455 393.789V438.211M704.455 393.789H748.909M704.455 438.211V482.632M704.455 438.211H748.909M704.455 482.632V527.053M704.455 482.632H748.909M704.455 527.053V571.474M704.455 527.053H748.909M704.455 571.474V615.895M704.455 571.474H748.909M704.455 615.895V660.316M704.455 615.895H748.909M704.455 660.316V704.737M704.455 660.316H748.909M704.455 704.737V749.158M704.455 704.737H748.909M704.455 749.158V793.579M704.455 749.158H748.909M704.455 793.579V838M704.455 793.579H748.909M704.455 838H748.909M748.909 -6V38.4211M748.909 -6H793.364M748.909 38.4211V82.8421M748.909 38.4211H793.364M748.909 82.8421V127.263M748.909 82.8421H793.364M748.909 127.263V171.684M748.909 127.263H793.364M748.909 171.684V216.105M748.909 171.684H793.364M748.909 216.105V260.526M748.909 216.105H793.364M748.909 260.526V304.947M748.909 260.526H793.364M748.909 304.947V349.368M748.909 304.947H793.364M748.909 349.368V393.789M748.909 349.368H793.364M748.909 393.789V438.211M748.909 393.789H793.364M748.909 438.211V482.632M748.909 438.211H793.364M748.909 482.632V527.053M748.909 482.632H793.364M748.909 527.053V571.474M748.909 527.053H793.364M748.909 571.474V615.895M748.909 571.474H793.364M748.909 615.895V660.316M748.909 615.895H793.364M748.909 660.316V704.737M748.909 660.316H793.364M748.909 704.737V749.158M748.909 704.737H793.364M748.909 749.158V793.579M748.909 749.158H793.364M748.909 793.579V838M748.909 793.579H793.364M748.909 838H793.364M793.364 -6V38.4211M793.364 -6H837.818M793.364 38.4211V82.8421M793.364 38.4211H837.818M793.364 82.8421V127.263M793.364 82.8421H837.818M793.364 127.263V171.684M793.364 127.263H837.818M793.364 171.684V216.105M793.364 171.684H837.818M793.364 216.105V260.526M793.364 216.105H837.818M793.364 260.526V304.947M793.364 260.526H837.818M793.364 304.947V349.368M793.364 304.947H837.818M793.364 349.368V393.789M793.364 349.368H837.818M793.364 393.789V438.211M793.364 393.789H837.818M793.364 438.211V482.632M793.364 438.211H837.818M793.364 482.632V527.053M793.364 482.632H837.818M793.364 527.053V571.474M793.364 527.053H837.818M793.364 571.474V615.895M793.364 571.474H837.818M793.364 615.895V660.316M793.364 615.895H837.818M793.364 660.316V704.737M793.364 660.316H837.818M793.364 704.737V749.158M793.364 704.737H837.818M793.364 749.158V793.579M793.364 749.158H837.818M793.364 793.579V838M793.364 793.579H837.818M793.364 838H837.818M837.818 -6V38.4211M837.818 -6H882.273M837.818 38.4211V82.8421M837.818 38.4211H882.273M837.818 82.8421V127.263M837.818 82.8421H882.273M837.818 127.263V171.684M837.818 127.263H882.273M837.818 171.684V216.105M837.818 171.684H882.273M837.818 216.105V260.526M837.818 216.105H882.273M837.818 260.526V304.947M837.818 260.526H882.273M837.818 304.947V349.368M837.818 304.947H882.273M837.818 349.368V393.789M837.818 349.368H882.273M837.818 393.789V438.211M837.818 393.789H882.273M837.818 438.211V482.632M837.818 438.211H882.273M837.818 482.632V527.053M837.818 482.632H882.273M837.818 527.053V571.474M837.818 527.053H882.273M837.818 571.474V615.895M837.818 571.474H882.273M837.818 615.895V660.316M837.818 615.895H882.273M837.818 660.316V704.737M837.818 660.316H882.273M837.818 704.737V749.158M837.818 704.737H882.273M837.818 749.158V793.579M837.818 749.158H882.273M837.818 793.579V838M837.818 793.579H882.273M837.818 838H882.273M882.273 -6V38.4211M882.273 -6H926.727M882.273 38.4211V82.8421M882.273 38.4211H926.727M882.273 82.8421V127.263M882.273 82.8421H926.727M882.273 127.263V171.684M882.273 127.263H926.727M882.273 171.684V216.105M882.273 171.684H926.727M882.273 216.105V260.526M882.273 216.105H926.727M882.273 260.526V304.947M882.273 260.526H926.727M882.273 304.947V349.368M882.273 304.947H926.727M882.273 349.368V393.789M882.273 349.368H926.727M882.273 393.789V438.211M882.273 393.789H926.727M882.273 438.211V482.632M882.273 438.211H926.727M882.273 482.632V527.053M882.273 482.632H926.727M882.273 527.053V571.474M882.273 527.053H926.727M882.273 571.474V615.895M882.273 571.474H926.727M882.273 615.895V660.316M882.273 615.895H926.727M882.273 660.316V704.737M882.273 660.316H926.727M882.273 704.737V749.158M882.273 704.737H926.727M882.273 749.158V793.579M882.273 749.158H926.727M882.273 793.579V838M882.273 793.579H926.727M882.273 838H926.727M926.727 -6V38.4211M926.727 -6H971.182M926.727 38.4211V82.8421M926.727 38.4211H971.182M926.727 82.8421V127.263M926.727 82.8421H971.182M926.727 127.263V171.684M926.727 127.263H971.182M926.727 171.684V216.105M926.727 171.684H971.182M926.727 216.105V260.526M926.727 216.105H971.182M926.727 260.526V304.947M926.727 260.526H971.182M926.727 304.947V349.368M926.727 304.947H971.182M926.727 349.368V393.789M926.727 349.368H971.182M926.727 393.789V438.211M926.727 393.789H971.182M926.727 438.211V482.632M926.727 438.211H971.182M926.727 482.632V527.053M926.727 482.632H971.182M926.727 527.053V571.474M926.727 527.053H971.182M926.727 571.474V615.895M926.727 571.474H971.182M926.727 615.895V660.316M926.727 615.895H971.182M926.727 660.316V704.737M926.727 660.316H971.182M926.727 704.737V749.158M926.727 704.737H971.182M926.727 749.158V793.579M926.727 749.158H971.182M926.727 793.579V838M926.727 793.579H971.182M926.727 838H971.182M971.182 -6V38.4211M971.182 -6H1015.64M971.182 38.4211V82.8421M971.182 38.4211H1015.64M971.182 82.8421V127.263M971.182 82.8421H1015.64M971.182 127.263V171.684M971.182 127.263H1015.64M971.182 171.684V216.105M971.182 171.684H1015.64M971.182 216.105V260.526M971.182 216.105H1015.64M971.182 260.526V304.947M971.182 260.526H1015.64M971.182 304.947V349.368M971.182 304.947H1015.64M971.182 349.368V393.789M971.182 349.368H1015.64M971.182 393.789V438.211M971.182 393.789H1015.64M971.182 438.211V482.632M971.182 438.211H1015.64M971.182 482.632V527.053M971.182 482.632H1015.64M971.182 527.053V571.474M971.182 527.053H1015.64M971.182 571.474V615.895M971.182 571.474H1015.64M971.182 615.895V660.316M971.182 615.895H1015.64M971.182 660.316V704.737M971.182 660.316H1015.64M971.182 704.737V749.158M971.182 704.737H1015.64M971.182 749.158V793.579M971.182 749.158H1015.64M971.182 793.579V838M971.182 793.579H1015.64M971.182 838H1015.64M1015.64 -6V38.4211M1015.64 -6H1060.09M1015.64 38.4211V82.8421M1015.64 38.4211H1060.09M1015.64 82.8421V127.263M1015.64 82.8421H1060.09M1015.64 127.263V171.684M1015.64 127.263H1060.09M1015.64 171.684V216.105M1015.64 171.684H1060.09M1015.64 216.105V260.526M1015.64 216.105H1060.09M1015.64 260.526V304.947M1015.64 260.526H1060.09M1015.64 304.947V349.368M1015.64 304.947H1060.09M1015.64 349.368V393.789M1015.64 349.368H1060.09M1015.64 393.789V438.211M1015.64 393.789H1060.09M1015.64 438.211V482.632M1015.64 438.211H1060.09M1015.64 482.632V527.053M1015.64 482.632H1060.09M1015.64 527.053V571.474M1015.64 527.053H1060.09M1015.64 571.474V615.895M1015.64 571.474H1060.09M1015.64 615.895V660.316M1015.64 615.895H1060.09M1015.64 660.316V704.737M1015.64 660.316H1060.09M1015.64 704.737V749.158M1015.64 704.737H1060.09M1015.64 749.158V793.579M1015.64 749.158H1060.09M1015.64 793.579V838M1015.64 793.579H1060.09M1015.64 838H1060.09M1060.09 -6V38.4211M1060.09 -6H1104.55M1060.09 38.4211V82.8421M1060.09 38.4211H1104.55M1060.09 82.8421V127.263M1060.09 82.8421H1104.55M1060.09 127.263V171.684M1060.09 127.263H1104.55M1060.09 171.684V216.105M1060.09 171.684H1104.55M1060.09 216.105V260.526M1060.09 216.105H1104.55M1060.09 260.526V304.947M1060.09 260.526H1104.55M1060.09 304.947V349.368M1060.09 304.947H1104.55M1060.09 349.368V393.789M1060.09 349.368H1104.55M1060.09 393.789V438.211M1060.09 393.789H1104.55M1060.09 438.211V482.632M1060.09 438.211H1104.55M1060.09 482.632V527.053M1060.09 482.632H1104.55M1060.09 527.053V571.474M1060.09 527.053H1104.55M1060.09 571.474V615.895M1060.09 571.474H1104.55M1060.09 615.895V660.316M1060.09 615.895H1104.55M1060.09 660.316V704.737M1060.09 660.316H1104.55M1060.09 704.737V749.158M1060.09 704.737H1104.55M1060.09 749.158V793.579M1060.09 749.158H1104.55M1060.09 793.579V838M1060.09 793.579H1104.55M1060.09 838H1104.55M1104.55 -6V38.4211M1104.55 -6H1149V38.4211M1104.55 38.4211V82.8421M1104.55 38.4211H1149M1104.55 82.8421V127.263M1104.55 82.8421H1149M1104.55 127.263V171.684M1104.55 127.263H1149M1104.55 171.684V216.105M1104.55 171.684H1149M1104.55 216.105V260.526M1104.55 216.105H1149M1104.55 260.526V304.947M1104.55 260.526H1149M1104.55 304.947V349.368M1104.55 304.947H1149M1104.55 349.368V393.789M1104.55 349.368H1149M1104.55 393.789V438.211M1104.55 393.789H1149M1104.55 438.211V482.632M1104.55 438.211H1149M1104.55 482.632V527.053M1104.55 482.632H1149M1104.55 527.053V571.474M1104.55 527.053H1149M1104.55 571.474V615.895M1104.55 571.474H1149M1104.55 615.895V660.316M1104.55 615.895H1149M1104.55 660.316V704.737M1104.55 660.316H1149M1104.55 704.737V749.158M1104.55 704.737H1149M1104.55 749.158V793.579M1104.55 749.158H1149M1104.55 793.579V838M1104.55 793.579H1149M1104.55 838H1149V793.579M1149 38.4211V82.8421M1149 82.8421V127.263M1149 127.263V171.684M1149 171.684V216.105M1149 216.105V260.526M1149 260.526V304.947M1149 304.947V349.368M1149 349.368V393.789M1149 393.789V438.211M1149 438.211V482.632M1149 482.632V527.053M1149 527.053V571.474M1149 571.474V615.895M1149 615.895V660.316M1149 660.316V704.737M1149 704.737V749.158M1149 749.158V793.579" stroke="url(#paint0_radial_244_571)" stroke-opacity="0.15" stroke-width="0.535961"/>
<path d="M393.193 435H461.984V500.606H393.193V435Z" fill="url(#paint1_linear_244_571)"/>
<path d="M461.984 501.243H530.775V566.849H461.984V501.243Z" fill="url(#paint2_linear_244_571)"/>
<path d="M324.402 501.243H393.193V566.849H324.402V501.243Z" fill="url(#paint3_linear_244_571)"/>
<path d="M393.193 565.575H461.984V631.182H393.193V565.575Z" fill="url(#paint4_linear_244_571)"/>
<path d="M461.984 631.818H530.775V697.425H461.984V631.818Z" fill="url(#paint5_linear_244_571)"/>
<path d="M324.402 631.818H393.193V697.425H324.402V631.818Z" fill="url(#paint6_linear_244_571)"/>
<path d="M49.2381 631.818H118.029V697.425H49.2381V631.818Z" fill="url(#paint7_linear_244_571)"/>
<path d="M393.193 696.151H461.984V761.757H393.193V696.151Z" fill="url(#paint8_linear_244_571)"/>
<path d="M255.611 696.151H324.402V761.757H255.611V696.151Z" fill="url(#paint9_linear_244_571)"/>
<path d="M118.029 696.151H186.82V761.757H118.029V696.151Z" fill="url(#paint10_linear_244_571)"/>
<path d="M-19.5528 696.151H49.2381V761.757H-19.5528V696.151Z" fill="url(#paint11_linear_244_571)"/>
<path d="M461.984 762.394H530.775V828H461.984V762.394Z" fill="url(#paint12_linear_244_571)"/>
<path d="M324.402 762.394H393.193V828H324.402V762.394Z" fill="url(#paint13_linear_244_571)"/>
<path d="M186.82 762.394H255.611V828H186.82V762.394Z" fill="url(#paint14_linear_244_571)"/>
<path d="M49.2381 762.394H118.029V828H49.2381V762.394Z" fill="url(#paint15_linear_244_571)"/>
<path d="M-88.3438 762.394H-19.5528V828H-88.3438V762.394Z" fill="url(#paint16_linear_244_571)"/>
<g filter="url(#filter0_d_244_571)">
<path d="M199.559 631.181H268.35V696.788H199.559V631.181Z" fill="white"/>
<path d="M137.775 570.671H206.566V636.277H137.775V570.671Z" fill="white"/>
<path d="M75.3535 514.619H144.144V580.225H75.3535V514.619Z" fill="white"/>
<path d="M264.529 456.656H324.402V638.825H264.529V456.656Z" fill="white"/>
</g>
</g>
<rect x="0.5" y="0.5" width="373" height="827" rx="15.5" stroke="white" stroke-opacity="0.1"/>
<defs>
<filter id="filter0_d_244_571" x="-124.646" y="256.656" width="649.049" height="640.131" filterUnits="userSpaceOnUse" color-interpolation-filters="sRGB">
<feFlood flood-opacity="0" result="BackgroundImageFix"/>
<feColorMatrix in="SourceAlpha" type="matrix" values="0 0 0 0 0 0 0 0 0 0 0 0 0 0 0 0 0 0 127 0" result="hardAlpha"/>
<feOffset/>
<feGaussianBlur stdDeviation="100"/>
<feComposite in2="hardAlpha" operator="out"/>
<feColorMatrix type="matrix" values="0 0 0 0 1 0 0 0 0 1 0 0 0 0 1 0 0 0 0.5 0"/>
<feBlend mode="normal" in2="BackgroundImageFix" result="effect1_dropShadow_244_571"/>
<feBlend mode="normal" in="SourceGraphic" in2="effect1_dropShadow_244_571" result="shape"/>
</filter>
<radialGradient id="paint0_radial_244_571" cx="0" cy="0" r="1" gradientUnits="userSpaceOnUse" gradientTransform="translate(-428.191 -6.00005) rotate(35.1829) scale(733.12 1371.77)">
<stop stop-color="white"/>
<stop offset="1" stop-color="white" stop-opacity="0.2"/>
</radialGradient>
<linearGradient id="paint1_linear_244_571" x1="37.7729" y1="513.664" x2="495.742" y2="828" gradientUnits="userSpaceOnUse">
<stop stop-color="white" stop-opacity="0"/>
<stop offset="1" stop-color="white" stop-opacity="0.05"/>
</linearGradient>
<linearGradient id="paint2_linear_244_571" x1="37.7729" y1="513.664" x2="495.742" y2="828" gradientUnits="userSpaceOnUse">
<stop stop-color="white" stop-opacity="0"/>
<stop offset="1" stop-color="white" stop-opacity="0.05"/>
</linearGradient>
<linearGradient id="paint3_linear_244_571" x1="37.7729" y1="513.664" x2="495.742" y2="828" gradientUnits="userSpaceOnUse">
<stop stop-color="white" stop-opacity="0"/>
<stop offset="1" stop-color="white" stop-opacity="0.05"/>
</linearGradient>
<linearGradient id="paint4_linear_244_571" x1="37.7729" y1="513.664" x2="495.742" y2="828" gradientUnits="userSpaceOnUse">
<stop stop-color="white" stop-opacity="0"/>
<stop offset="1" stop-color="white" stop-opacity="0.05"/>
</linearGradient>
<linearGradient id="paint5_linear_244_571" x1="37.7729" y1="513.664" x2="495.742" y2="828" gradientUnits="userSpaceOnUse">
<stop stop-color="white" stop-opacity="0"/>
<stop offset="1" stop-color="white" stop-opacity="0.05"/>
</linearGradient>
<linearGradient id="paint6_linear_244_571" x1="37.7729" y1="513.664" x2="495.742" y2="828" gradientUnits="userSpaceOnUse">
<stop stop-color="white" stop-opacity="0"/>
<stop offset="1" stop-color="white" stop-opacity="0.05"/>
</linearGradient>
<linearGradient id="paint7_linear_244_571" x1="37.7729" y1="513.664" x2="495.742" y2="828" gradientUnits="userSpaceOnUse">
<stop stop-color="white" stop-opacity="0"/>
<stop offset="1" stop-color="white" stop-opacity="0.05"/>
</linearGradient>
<linearGradient id="paint8_linear_244_571" x1="37.7729" y1="513.664" x2="495.742" y2="828" gradientUnits="userSpaceOnUse">
<stop stop-color="white" stop-opacity="0"/>
<stop offset="1" stop-color="white" stop-opacity="0.05"/>
</linearGradient>
<linearGradient id="paint9_linear_244_571" x1="37.7729" y1="513.664" x2="495.742" y2="828" gradientUnits="userSpaceOnUse">
<stop stop-color="white" stop-opacity="0"/>
<stop offset="1" stop-color="white" stop-opacity="0.05"/>
</linearGradient>
<linearGradient id="paint10_linear_244_571" x1="37.7729" y1="513.664" x2="495.742" y2="828" gradientUnits="userSpaceOnUse">
<stop stop-color="white" stop-opacity="0"/>
<stop offset="1" stop-color="white" stop-opacity="0.05"/>
</linearGradient>
<linearGradient id="paint11_linear_244_571" x1="37.7729" y1="513.664" x2="495.742" y2="828" gradientUnits="userSpaceOnUse">
<stop stop-color="white" stop-opacity="0"/>
<stop offset="1" stop-color="white" stop-opacity="0.05"/>
</linearGradient>
<linearGradient id="paint12_linear_244_571" x1="37.7729" y1="513.664" x2="495.742" y2="828" gradientUnits="userSpaceOnUse">
<stop stop-color="white" stop-opacity="0"/>
<stop offset="1" stop-color="white" stop-opacity="0.05"/>
</linearGradient>
<linearGradient id="paint13_linear_244_571" x1="37.7729" y1="513.664" x2="495.742" y2="828" gradientUnits="userSpaceOnUse">
<stop stop-color="white" stop-opacity="0"/>
<stop offset="1" stop-color="white" stop-opacity="0.05"/>
</linearGradient>
<linearGradient id="paint14_linear_244_571" x1="37.7729" y1="513.664" x2="495.742" y2="828" gradientUnits="userSpaceOnUse">
<stop stop-color="white" stop-opacity="0"/>
<stop offset="1" stop-color="white" stop-opacity="0.05"/>
</linearGradient>
<linearGradient id="paint15_linear_244_571" x1="37.7729" y1="513.664" x2="495.742" y2="828" gradientUnits="userSpaceOnUse">
<stop stop-color="white" stop-opacity="0"/>
<stop offset="1" stop-color="white" stop-opacity="0.05"/>
</linearGradient>
<linearGradient id="paint16_linear_244_571" x1="37.7729" y1="513.664" x2="495.742" y2="828" gradientUnits="userSpaceOnUse">
<stop stop-color="white" stop-opacity="0"/>
<stop offset="1" stop-color="white" stop-opacity="0.05"/>
</linearGradient>
<clipPath id="clip0_244_571">
<rect width="374" height="828" rx="16" fill="white"/>
</clipPath>
</defs>
</svg>
